<?xml version="1.0" standalone="no"?>
<!DOCTYPE svg PUBLIC "-//W3C//DTD SVG 1.1//EN" "http://www.w3.org/Graphics/SVG/1.1/DTD/svg11.dtd" >
<svg xmlns="http://www.w3.org/2000/svg">
<metadata>Generated by IcoMoon</metadata>
<defs>
<font id="icomoon" horiz-adv-x="1024">
<font-face units-per-em="1024" ascent="960" descent="-64" />
<missing-glyph horiz-adv-x="1024" />
<glyph unicode="&#x20;" horiz-adv-x="512" d="" />
<glyph unicode="&#xe900;" glyph-name="advance" d="M371.503 840.209l392.209-392.209-392.209-392.209-60.34 60.34 331.866 331.869-331.866 331.869z" />
<glyph unicode="&#xe901;" glyph-name="back" d="M652.497 840.209l-392.209-392.209 392.209-392.209 60.34 60.34-331.866 331.869 331.866 331.869z" />
<glyph unicode="&#xe902;" glyph-name="change" d="M396.497 392.837l60.34-60.34-225.839-225.83h195.669v-85.333h-341.333v341.333h85.333v-195.584l225.83 225.754zM938.667 874.667v-341.333h-85.333v195.669l-225.83-225.839-60.34 60.34 225.754 225.83h-195.584v85.333h341.333z" />
<glyph unicode="&#xe903;" glyph-name="close" d="M783.529 779.869l60.34-60.34-271.546-271.522 271.546-271.536-60.34-60.34-271.536 271.546-271.522-271.546-60.34 60.34 271.531 271.536-271.531 271.522 60.34 60.34 271.522-271.531 271.536 271.531z" />
<glyph unicode="&#xe904;" glyph-name="copy" d="M896 661.333c23.564 0 42.667-19.103 42.667-42.667v0-554.667c0-23.564-19.103-42.667-42.667-42.667v0h-554.667c-23.564 0-42.667 19.103-42.667 42.667v0 554.667c0 23.564 19.103 42.667 42.667 42.667v0zM853.333 576h-469.333v-469.333h469.333v469.333zM682.667 874.667c21.881 0 39.915-16.471 42.38-37.691l0.287-4.976v-128h-85.333v85.333h-469.333v-469.333h85.333v-85.333h-128c-21.881 0-39.915 16.471-42.38 37.691l-0.287 4.976v554.667c0 21.881 16.471 39.915 37.691 42.38l4.976 0.287h554.667z" />
<glyph unicode="&#xe905;" glyph-name="arrow-down" d="M170.667 661.333l341.333-426.667 341.333 426.667z" />
<glyph unicode="&#xe906;" glyph-name="explain" d="M981.333 448c0 259.206-210.128 469.333-469.333 469.333s-469.333-210.128-469.333-469.333c0-259.206 210.128-469.333 469.333-469.333s469.333 210.128 469.333 469.333zM896 448c0-212.077-171.923-384-384-384s-384 171.923-384 384c0 212.077 171.923 384 384 384s384-171.923 384-384zM682.667 562.26c0 43.39-15.070 78.102-45.21 103.412-30.14 26.034-69.322 38.328-117.545 38.328-55.759 0-99.461-15.186-131.108-46.282-31.647-30.373-47.47-71.593-47.47-124.384h79.117c0 31.819 6.781 56.407 20.344 73.763 15.070 20.972 39.935 31.096 73.843 31.096 27.126 0 48.977-7.232 64.047-21.695 14.316-14.463 21.851-33.989 21.851-59.299 0-18.802-7.535-36.158-21.098-52.791l-12.809-13.74c-46.717-39.774-75.35-69.424-85.145-89.672-10.549-18.802-15.070-41.944-15.070-68.701v-12.294h80.624v12.294c0 17.356 3.767 33.266 12.056 47.729 6.781 13.017 17.33 26.034 31.647 37.605 35.414 29.65 56.512 48.452 63.294 56.407 18.837 23.141 28.633 52.791 28.633 88.226zM558.933 224.373c0 15.664-5.079 28.345-15.238 38.042-10.159 10.443-23.22 14.918-38.458 14.918-14.512 0-27.574-4.476-37.732-14.918-10.159-9.697-15.238-22.378-15.238-38.042 0-14.918 5.079-27.599 15.238-38.042s23.22-15.664 37.732-15.664c14.512 0 27.574 5.221 37.732 14.918 10.159 10.443 15.964 23.124 15.964 38.788z" />
<glyph unicode="&#xe907;" glyph-name="fold" d="M896 192v-85.333h-768v85.333h768zM341.333 576v-256l-213.333 128 213.333 128zM896 490.667v-85.333h-469.333v85.333h469.333zM896 789.333v-85.333h-768v85.333h768z" />
<glyph unicode="&#xe908;" glyph-name="full-screen" d="M938.667 362.667v-298.667c0-21.881-16.471-39.915-37.691-42.38l-4.976-0.287h-298.667v85.333h256v256h85.333zM396.497 392.837l60.34-60.34-225.839-225.83h195.669v-85.333h-341.333v341.333h85.333v-195.584l225.83 225.754zM938.667 874.667v-341.333h-85.333v195.669l-225.83-225.839-60.34 60.34 225.754 225.83h-195.584v85.333h341.333zM426.667 874.667v-85.333h-256v-256h-85.333v298.667c0 21.881 16.471 39.915 37.691 42.38l4.976 0.287h298.667z" />
<glyph unicode="&#xe909;" glyph-name="play-prev" d="M768 789.333l-426.667-341.333 426.667-341.333v682.667zM256 789.333v-682.667h85.333v682.667h-85.333z" />
<glyph unicode="&#xe90a;" glyph-name="play-next" d="M256 789.333l426.667-341.333-426.667-341.333v682.667zM768 789.333v-682.667h-85.333v682.667h85.333z" />
<glyph unicode="&#xe90b;" glyph-name="play" d="M298.667 106.667l426.667 341.333-426.667 341.333z" />
<glyph unicode="&#xe90c;" glyph-name="arrow-right" d="M298.667 106.667l426.667 341.333-426.667 341.333z" />
<glyph unicode="&#xe90d;" glyph-name="screen-shot" d="M469.333 21.333h-341.333c-21.881 0-39.915 16.471-42.38 37.691l-0.287 4.976v341.333h85.333v-298.667h298.667v-85.333zM618.667 448l192-256h-597.333l149.333 170.667 103.381-118.144 152.619 203.477zM341.333 704c47.128 0 85.333-38.205 85.333-85.333s-38.205-85.333-85.333-85.333c-47.128 0-85.333 38.205-85.333 85.333s38.205 85.333 85.333 85.333zM853.333 106.667v298.667h85.333v-341.333c0-21.881-16.471-39.915-37.691-42.38l-4.976-0.287h-341.333v85.333h298.667zM853.333 789.333h-298.667v85.333h341.333c21.881 0 39.915-16.471 42.38-37.691l0.287-4.976v-341.333h-85.333v298.667zM170.667 789.333v-298.667h-85.333v341.333c0 21.881 16.471 39.915 37.691 42.38l4.976 0.287h341.333v-85.333h-298.667z" />
<glyph unicode="&#xe90e;" glyph-name="share" d="M746.667 874.667c82.475 0 149.333-66.859 149.333-149.333s-66.859-149.333-149.333-149.333c-24.523 0-47.666 5.911-68.080 16.386l-209.765-131.073c0.339-4.393 0.512-8.833 0.512-13.313 0-5.8-0.289-11.533-0.854-17.185l206.589-129.067c21.258 11.636 45.656 18.251 71.599 18.251 82.475 0 149.333-66.859 149.333-149.333s-66.859-149.333-149.333-149.333c-82.475 0-149.333 66.859-149.333 149.333 0 24.742 6.017 48.079 16.668 68.627l-176.061 110.042c-30.922-43.571-81.778-72.003-139.274-72.003-94.257 0-170.667 76.41-170.667 170.667s76.41 170.667 170.667 170.667c58.739 0 110.547-29.674 141.251-74.849l175.714 109.832c-11.665 21.278-18.298 45.706-18.298 71.684 0 82.475 66.859 149.333 149.333 149.333zM746.667 234.667c-35.346 0-64-28.654-64-64s28.654-64 64-64c35.346 0 64 28.654 64 64s-28.654 64-64 64zM298.667 533.333c-47.128 0-85.333-38.205-85.333-85.333s38.205-85.333 85.333-85.333c47.128 0 85.333 38.205 85.333 85.333s-38.205 85.333-85.333 85.333zM746.667 789.333c-35.346 0-64-28.654-64-64s28.654-64 64-64c35.346 0 64 28.654 64 64s-28.654 64-64 64z" />
<glyph unicode="&#xe90f;" glyph-name="small-screen" d="M938.667 362.667v-298.667c0-21.881-16.471-39.915-37.691-42.38l-4.976-0.287h-298.667v85.333h256v256h85.333zM456.837 405.333v-341.333h-85.333l-0.005 195.669-225.826-225.839-60.34 60.34 225.792 225.83h-195.622v85.333h341.333zM865.83 874.667l60.34-60.34-225.839-225.826 195.669-0.005v-85.333h-341.333v341.333h85.333v-195.622l225.83 225.792zM426.667 874.667v-85.333h-256v-256h-85.333v298.667c0 21.881 16.471 39.915 37.691 42.38l4.976 0.287h298.667z" />
<glyph unicode="&#xe910;" glyph-name="unfold" d="M896 192v-85.333h-768v85.333h768zM128 576l213.333-128-213.333-128v256zM896 490.667v-85.333h-469.333v85.333h469.333zM896 789.333v-85.333h-768v85.333h768z" />
<glyph unicode="&#xe911;" glyph-name="unview" d="M210.301 810.039l663.738-663.738-60.34-60.34-77.609 77.61c-67.043-36.454-143.584-56.905-224.090-56.905-202.175 0-379.353 128.98-443.863 316.461l-3.964 12.046-4.016 12.784 4.013 12.785c28.109 89.54 81.667 166.415 151.493 223.246l-65.702 65.711 60.34 60.34zM157.642 468.212l-4.477-11.206-3.32-9.006 3.32-9.067c53.202-139.395 183.589-236.653 334.464-246.167l12.619-0.589 11.751-0.178c56.891 0 111.366 12.484 160.503 35.105l-73.793 73.866c-25.412-15.019-55.055-23.638-86.711-23.638-94.257 0-170.667 76.41-170.667 170.667 0 31.648 8.614 61.284 23.626 86.691l-88.576 88.563c-51.535-40.029-92.857-93.11-118.741-155.042zM512 789.333c202.192 0 379.383-129.002 443.879-316.507l3.963-12.047 4.016-12.787-4.018-12.787c-21.842-69.515-59.019-131.395-107.236-182.185l-60.331 60.401c30.92 32.959 56.193 71.533 74.093 114.337l4.48 11.205 3.266 9.037-3.264 9.031c-53.192 139.413-183.588 236.687-334.476 246.202l-12.62 0.589-11.752 0.178c-33.628 0-66.41-4.362-97.745-12.6l-67.796 67.834c51.754 19.514 107.621 30.1 165.541 30.1zM426.667 448c0-47.128 38.205-85.333 85.333-85.333 7.65 0 15.065 1.007 22.12 2.895l-104.562 104.542c-1.885-7.050-2.891-14.459-2.891-22.104zM512 618.667c94.257 0 170.667-76.41 170.667-170.667 0-7.924-0.54-15.722-1.585-23.36l-192.441 192.441c7.637 1.045 15.435 1.585 23.36 1.585z" />
<glyph unicode="&#xe912;" glyph-name="arrow-up" d="M170.667 234.667l341.333 426.667 341.333-426.667z" />
<glyph unicode="&#xe913;" glyph-name="view" d="M512 789.333c206.494 0 386.911-134.55 447.842-328.554v0l4.016-12.787-4.018-12.787c-60.958-194.007-241.359-328.539-447.84-328.539-206.476 0-386.881 134.527-447.827 328.507v0l-4.016 12.784 4.013 12.785c60.912 194.031 241.325 328.592 447.83 328.592zM512 704c-161.1 0-302.812-100.107-358.835-246.994v0l-3.32-9.006 3.32-9.067c54.679-143.268 190.893-242.023 347.084-246.756v0l11.751-0.178c161.084 0 302.79 100.088 358.846 246.963v0l3.266 9.037-3.264 9.031c-54.67 143.286-190.892 242.058-347.096 246.791v0zM512 618.667c94.257 0 170.667-76.41 170.667-170.667s-76.41-170.667-170.667-170.667c-94.257 0-170.667 76.41-170.667 170.667s76.41 170.667 170.667 170.667zM512 533.333c-47.128 0-85.333-38.205-85.333-85.333s38.205-85.333 85.333-85.333c47.128 0 85.333 38.205 85.333 85.333s-38.205 85.333-85.333 85.333z" />
<glyph unicode="&#xe914;" glyph-name="volume" d="M128 585.813v-256h170.667l213.333-213.333v682.667l-213.333-213.333h-170.667zM704 457.813c0 75.52-43.52 140.373-106.667 171.947v-343.467c63.147 31.147 106.667 96 106.667 171.52zM597.333 832v-87.893c123.307-36.693 213.333-151.040 213.333-286.293s-90.027-249.6-213.333-286.293v-87.893c171.093 38.827 298.667 191.573 298.667 374.187s-127.573 335.36-298.667 374.187z" />
<glyph unicode="&#xe915;" glyph-name="pause" d="M384 746.667v-597.333h-128v597.333h128zM768 746.667v-597.333h-128v597.333h128z" />
<glyph unicode="&#xe916;" glyph-name="mute" d="M210.301 810.039l663.738-663.738-60.34-60.34-67.661 67.625c-39.509-30.383-85.112-53.259-134.673-66.495l-14.032-3.464v87.893c31.83 9.472 61.442 24.118 87.86 42.962l-77.407 77.401-10.453-5.589v16.043l-85.333 85.333v-271.189l-213.333 213.333h-170.667v256h170.667l7.595 7.595-156.3 156.291 60.34 60.34zM597.333 832c171.093-38.827 298.667-191.573 298.667-374.187 0-71.194-19.39-137.848-53.19-194.983l-62.864 62.943c19.667 39.818 30.721 84.645 30.721 132.039 0 131.389-84.956 243.049-202.847 282.959l-10.486 3.334v87.893zM597.333 629.76c63.147-31.573 106.667-96.427 106.667-171.947 0-17.195-2.256-33.838-6.487-49.655l-100.18 100.173v121.429zM512 799.147v-205.483l-102.741 102.741 102.741 102.741z" />
<glyph unicode="&#xe917;" glyph-name="no-data" d="M906.1 141.313h-67.518c-16.447 0-29.78 13.339-29.78 29.793s13.333 29.793 29.78 29.793h37.738c10.965 0 19.853 8.892 19.853 19.862v591.526c0 10.969-8.889 19.862-19.853 19.862h-523.155c-10.965 0-19.853-8.892-19.853-19.862v-27.806h367.305c27.412 0 49.634-22.231 49.634-49.654v-221.816c1.989-11.096-2.455-22.365-11.481-29.114s-21.088-7.82-31.162-2.768c-10.074 5.052-16.432 15.361-16.428 26.635h-0.489v197.27c0 10.969-8.889 19.862-19.853 19.862h-523.155c-10.965 0-19.853-8.892-19.853-19.862v-621.319c0-10.969 8.889-19.862 19.853-19.862h334.531c16.447 0 29.78-13.339 29.78-29.793s-13.333-29.793-29.78-29.793h-364.311c-27.412 0-49.634 22.231-49.634 49.654v680.904c0 27.423 22.222 49.654 49.634 49.654h155.85v57.599c0 27.423 22.222 49.654 49.634 49.654h582.716c27.412 0 49.634-22.231 49.634-49.654v-651.112c0-27.423-22.222-49.654-49.634-49.654zM247.92 621.968h324.367c10.673 0.061 20.561-5.6 25.916-14.836s5.354-20.634 0-29.871c-5.354-9.237-15.243-14.897-25.916-14.836h-324.367c-10.673-0.061-20.561 5.6-25.916 14.836s-5.354 20.634 0 29.871c5.354 9.237 15.243 14.897 25.916 14.836zM247.92 333.929h74.363c16.435 0 29.759-13.329 29.759-29.771s-13.324-29.772-29.759-29.772h-74.363c-16.436 0-29.759 13.329-29.759 29.772s13.324 29.771 29.759 29.771v0zM218.16 448.198c0 16.443 13.324 29.772 29.759 29.772h139.903c16.436 0 29.759-13.329 29.759-29.772v-0.042c0-16.443-13.324-29.772-29.759-29.772h-139.903c-16.436 0-29.759 13.329-29.759 29.772v0.042zM379.966 271.904c0 106.677 86.443 193.156 193.075 193.156s193.075-86.479 193.075-193.156c0.062-41.234-13.128-81.396-37.622-114.559l83.499-83.534c7.524-7.526 10.462-18.496 7.709-28.778s-10.78-18.313-21.057-21.068c-10.277-2.755-21.243 0.184-28.766 7.71l-83.682 83.717c-32.896-23.878-72.512-36.707-113.155-36.645-106.632 0-193.075 86.479-193.075 193.156v0zM573.042 138.334c73.738 0 133.515 59.802 133.515 133.57s-59.777 133.57-133.515 133.57c-73.738 0-133.515-59.802-133.515-133.57s59.777-133.57 133.515-133.57z" />
<glyph unicode="&#xe918;" glyph-name="logo" horiz-adv-x="5120" d="M500.211 947.321c72.051 0 139.183-12.935 201.432-38.737 62.248-25.768 114.257-61.844 156.093-108.059l-104.051-104.051c-31.158 34.728-68.278 61.406-111.394 80.034-43.149 18.695-90.947 27.992-143.394 27.992-61.373 0-118.737-14.619-172.093-43.958s-96.034-71.208-128.067-125.44c-32-54.198-48-116.514-48-186.745 0-70.265 16-132.48 48-186.745 32.034-54.232 74.712-96 128.067-125.406 53.356-29.339 111.158-43.992 173.406-43.992 56.926 0 104.488 8.455 142.754 25.364 38.198 16.876 72.455 39.579 102.703 67.975 19.571 19.537 36.244 44.025 50.021 73.364 13.777 29.373 22.872 61.373 27.352 96.101h-324.143v133.389h465.549c4.413-24.96 6.669-50.661 6.669-77.373 0-60.463-9.364-118.535-28.025-174.080-18.661-55.646-48.472-103.815-89.364-144.741-89.836-95.158-207.663-142.72-353.516-142.72-90.712 0-174.282 21.76-250.779 65.314-76.497 43.587-137.196 103.377-182.097 179.436-44.901 76.025-67.335 160.775-67.335 254.114 0 93.44 22.434 178.088 67.335 254.114 44.901 76.093 105.6 135.848 182.097 179.402 76.497 43.587 160.067 65.448 250.779 65.448zM1506.041 925.912c56.893 0 108.935-12.463 156.059-37.356 47.124-24.859 84.244-59.554 111.394-104.051 27.116-44.463 40.691-94.653 40.691-150.669 0-64.101-20.682-120.96-62.046-170.813-41.364-49.752-93.171-83.166-155.385-100.008l-1.347-6.703 261.457-377.499v-8.017h-173.406l-252.126 373.524h-112.067v-373.524h-149.389v955.116h336.168zM2948.049 925.925l213.423-630.939 33.347-108.025h8.017l34.695 108.025 224.067 630.939h162.762l-346.846-955.082h-156.025l-337.516 955.082h164.076zM2422.366 925.925l346.846-955.082h-162.728l-224.135 630.905-34.695 108.059h-7.983l-33.381-108.059-213.389-630.905h-164.109l337.482 955.082h156.093zM3929.869 925.912v-955.082h-149.457v955.082h149.457zM4783.562 925.915v-142.72h-266.779v-812.362h-149.423v812.362h-266.779v142.72h682.981zM5103.731 925.912v-955.082h-149.423v955.082h149.423zM1507.355 785.853h-188.093v-302.821h182.771c44.463 0 82.223 14.215 113.381 42.745 31.124 28.396 46.686 64.842 46.686 109.373 0 24.859-6.232 48.876-18.661 71.983-12.463 23.141-30.248 42.004-53.389 56.724-23.107 14.653-50.695 21.996-82.695 21.996z" />
<glyph unicode="&#xe919;" glyph-name="ok-color" d="M512 874.667c235.641 0 426.667-191.025 426.667-426.667s-191.025-426.667-426.667-426.667c-235.641 0-426.667 191.025-426.667 426.667s191.025 426.667 426.667 426.667zM735.375 643.086l-304.783-304.739-139.832 139.823-60.34-60.34 200.189-200.189 365.105 365.105-60.34 60.34z" />
</font>
</defs>
</svg>
