<?xml version="1.0" encoding="utf-8" standalone="no"?>
<!DOCTYPE svg PUBLIC "-//W3C//DTD SVG 1.1//EN"
  "http://www.w3.org/Graphics/SVG/1.1/DTD/svg11.dtd">
<!-- Created with matplotlib (https://matplotlib.org/) -->
<svg height="126.143175pt" version="1.1" viewBox="0 0 1133.9 126.143175" width="1133.9pt" xmlns="http://www.w3.org/2000/svg" xmlns:xlink="http://www.w3.org/1999/xlink">
 <metadata>
  <rdf:RDF xmlns:cc="http://creativecommons.org/ns#" xmlns:dc="http://purl.org/dc/elements/1.1/" xmlns:rdf="http://www.w3.org/1999/02/22-rdf-syntax-ns#">
   <cc:Work>
    <dc:type rdf:resource="http://purl.org/dc/dcmitype/StillImage"/>
    <dc:date>2021-02-16T23:03:03.559762</dc:date>
    <dc:format>image/svg+xml</dc:format>
    <dc:creator>
     <cc:Agent>
      <dc:title>Matplotlib v3.3.4, https://matplotlib.org/</dc:title>
     </cc:Agent>
    </dc:creator>
   </cc:Work>
  </rdf:RDF>
 </metadata>
 <defs>
  <style type="text/css">*{stroke-linecap:butt;stroke-linejoin:round;}</style>
 </defs>
 <g id="figure_1">
  <g id="patch_1">
   <path d="M 0 126.143175 
L 1133.9 126.143175 
L 1133.9 0 
L 0 0 
z
" style="fill:none;"/>
  </g>
  <g id="axes_1">
   <g id="patch_2">
    <path d="M 10.7 88.586925 
L 1126.7 88.586925 
L 1126.7 34.226925 
L 10.7 34.226925 
z
" style="fill:#ffffff;"/>
   </g>
   <g id="patch_3">
    <path clip-path="url(#pec9c617903)" d="M 10.7 88.586925 
L 19.284615 88.586925 
L 19.284615 34.226925 
L 10.7 34.226925 
z
" style="fill:#e41a1c;stroke:#000000;stroke-linejoin:miter;stroke-width:0.25;"/>
   </g>
   <g id="patch_4">
    <path clip-path="url(#pec9c617903)" d="M 19.284615 88.586925 
L 27.869231 88.586925 
L 27.869231 34.226925 
L 19.284615 34.226925 
z
" style="fill:#e41a1c;stroke:#000000;stroke-linejoin:miter;stroke-width:0.25;"/>
   </g>
   <g id="patch_5">
    <path clip-path="url(#pec9c617903)" d="M 27.869231 88.586925 
L 36.453846 88.586925 
L 36.453846 34.226925 
L 27.869231 34.226925 
z
" style="fill:#e41a1c;stroke:#000000;stroke-linejoin:miter;stroke-width:0.25;"/>
   </g>
   <g id="patch_6">
    <path clip-path="url(#pec9c617903)" d="M 36.453846 88.586925 
L 45.038462 88.586925 
L 45.038462 34.226925 
L 36.453846 34.226925 
z
" style="fill:#e41a1c;stroke:#000000;stroke-linejoin:miter;stroke-width:0.25;"/>
   </g>
   <g id="patch_7">
    <path clip-path="url(#pec9c617903)" d="M 45.038462 88.586925 
L 53.623077 88.586925 
L 53.623077 34.226925 
L 45.038462 34.226925 
z
" style="fill:#e41a1c;stroke:#000000;stroke-linejoin:miter;stroke-width:0.25;"/>
   </g>
   <g id="patch_8">
    <path clip-path="url(#pec9c617903)" d="M 53.623077 88.586925 
L 62.207692 88.586925 
L 62.207692 34.226925 
L 53.623077 34.226925 
z
" style="fill:#e41a1c;stroke:#000000;stroke-linejoin:miter;stroke-width:0.25;"/>
   </g>
   <g id="patch_9">
    <path clip-path="url(#pec9c617903)" d="M 62.207692 88.586925 
L 70.792308 88.586925 
L 70.792308 34.226925 
L 62.207692 34.226925 
z
" style="fill:#e41a1c;stroke:#000000;stroke-linejoin:miter;stroke-width:0.25;"/>
   </g>
   <g id="patch_10">
    <path clip-path="url(#pec9c617903)" d="M 70.792308 88.586925 
L 79.376923 88.586925 
L 79.376923 34.226925 
L 70.792308 34.226925 
z
" style="fill:#e41a1c;stroke:#000000;stroke-linejoin:miter;stroke-width:0.25;"/>
   </g>
   <g id="patch_11">
    <path clip-path="url(#pec9c617903)" d="M 79.376923 88.586925 
L 87.961538 88.586925 
L 87.961538 34.226925 
L 79.376923 34.226925 
z
" style="fill:#e41a1c;stroke:#000000;stroke-linejoin:miter;stroke-width:0.25;"/>
   </g>
   <g id="patch_12">
    <path clip-path="url(#pec9c617903)" d="M 87.961538 88.586925 
L 96.546154 88.586925 
L 96.546154 34.226925 
L 87.961538 34.226925 
z
" style="fill:#e41a1c;stroke:#000000;stroke-linejoin:miter;stroke-width:0.25;"/>
   </g>
   <g id="patch_13">
    <path clip-path="url(#pec9c617903)" d="M 96.546154 88.586925 
L 105.130769 88.586925 
L 105.130769 34.226925 
L 96.546154 34.226925 
z
" style="fill:#e41a1c;stroke:#000000;stroke-linejoin:miter;stroke-width:0.25;"/>
   </g>
   <g id="patch_14">
    <path clip-path="url(#pec9c617903)" d="M 105.130769 88.586925 
L 113.715385 88.586925 
L 113.715385 34.226925 
L 105.130769 34.226925 
z
" style="fill:#e41a1c;stroke:#000000;stroke-linejoin:miter;stroke-width:0.25;"/>
   </g>
   <g id="patch_15">
    <path clip-path="url(#pec9c617903)" d="M 113.715385 88.586925 
L 122.3 88.586925 
L 122.3 34.226925 
L 113.715385 34.226925 
z
" style="fill:#e41a1c;stroke:#000000;stroke-linejoin:miter;stroke-width:0.25;"/>
   </g>
   <g id="patch_16">
    <path clip-path="url(#pec9c617903)" d="M 122.3 88.586925 
L 130.884615 88.586925 
L 130.884615 34.226925 
L 122.3 34.226925 
z
" style="fill:#e41a1c;stroke:#000000;stroke-linejoin:miter;stroke-width:0.25;"/>
   </g>
   <g id="patch_17">
    <path clip-path="url(#pec9c617903)" d="M 130.884615 88.586925 
L 139.469231 88.586925 
L 139.469231 34.226925 
L 130.884615 34.226925 
z
" style="fill:#e41a1c;stroke:#000000;stroke-linejoin:miter;stroke-width:0.25;"/>
   </g>
   <g id="patch_18">
    <path clip-path="url(#pec9c617903)" d="M 139.469231 88.586925 
L 148.053846 88.586925 
L 148.053846 34.226925 
L 139.469231 34.226925 
z
" style="fill:#e41a1c;stroke:#000000;stroke-linejoin:miter;stroke-width:0.25;"/>
   </g>
   <g id="patch_19">
    <path clip-path="url(#pec9c617903)" d="M 148.053846 88.586925 
L 156.638462 88.586925 
L 156.638462 34.226925 
L 148.053846 34.226925 
z
" style="fill:#e41a1c;stroke:#000000;stroke-linejoin:miter;stroke-width:0.25;"/>
   </g>
   <g id="patch_20">
    <path clip-path="url(#pec9c617903)" d="M 156.638462 88.586925 
L 165.223077 88.586925 
L 165.223077 34.226925 
L 156.638462 34.226925 
z
" style="fill:#e41a1c;stroke:#000000;stroke-linejoin:miter;stroke-width:0.25;"/>
   </g>
   <g id="patch_21">
    <path clip-path="url(#pec9c617903)" d="M 165.223077 88.586925 
L 173.807692 88.586925 
L 173.807692 34.226925 
L 165.223077 34.226925 
z
" style="fill:#e41a1c;stroke:#000000;stroke-linejoin:miter;stroke-width:0.25;"/>
   </g>
   <g id="patch_22">
    <path clip-path="url(#pec9c617903)" d="M 173.807692 88.586925 
L 182.392308 88.586925 
L 182.392308 34.226925 
L 173.807692 34.226925 
z
" style="fill:#e41a1c;stroke:#000000;stroke-linejoin:miter;stroke-width:0.25;"/>
   </g>
   <g id="patch_23">
    <path clip-path="url(#pec9c617903)" d="M 182.392308 88.586925 
L 190.976923 88.586925 
L 190.976923 34.226925 
L 182.392308 34.226925 
z
" style="fill:#e41a1c;stroke:#000000;stroke-linejoin:miter;stroke-width:0.25;"/>
   </g>
   <g id="patch_24">
    <path clip-path="url(#pec9c617903)" d="M 190.976923 88.586925 
L 199.561538 88.586925 
L 199.561538 34.226925 
L 190.976923 34.226925 
z
" style="fill:#e41a1c;stroke:#000000;stroke-linejoin:miter;stroke-width:0.25;"/>
   </g>
   <g id="patch_25">
    <path clip-path="url(#pec9c617903)" d="M 199.561538 88.586925 
L 208.146154 88.586925 
L 208.146154 34.226925 
L 199.561538 34.226925 
z
" style="fill:#e41a1c;stroke:#000000;stroke-linejoin:miter;stroke-width:0.25;"/>
   </g>
   <g id="patch_26">
    <path clip-path="url(#pec9c617903)" d="M 208.146154 88.586925 
L 216.730769 88.586925 
L 216.730769 34.226925 
L 208.146154 34.226925 
z
" style="fill:#e41a1c;stroke:#000000;stroke-linejoin:miter;stroke-width:0.25;"/>
   </g>
   <g id="patch_27">
    <path clip-path="url(#pec9c617903)" d="M 216.730769 88.586925 
L 225.315385 88.586925 
L 225.315385 34.226925 
L 216.730769 34.226925 
z
" style="fill:#e41a1c;stroke:#000000;stroke-linejoin:miter;stroke-width:0.25;"/>
   </g>
   <g id="patch_28">
    <path clip-path="url(#pec9c617903)" d="M 225.315385 88.586925 
L 233.9 88.586925 
L 233.9 34.226925 
L 225.315385 34.226925 
z
" style="fill:#e41a1c;stroke:#000000;stroke-linejoin:miter;stroke-width:0.25;"/>
   </g>
   <g id="patch_29">
    <path clip-path="url(#pec9c617903)" d="M 233.9 88.586925 
L 242.484615 88.586925 
L 242.484615 34.226925 
L 233.9 34.226925 
z
" style="fill:#e41a1c;stroke:#000000;stroke-linejoin:miter;stroke-width:0.25;"/>
   </g>
   <g id="patch_30">
    <path clip-path="url(#pec9c617903)" d="M 242.484615 88.586925 
L 251.069231 88.586925 
L 251.069231 34.226925 
L 242.484615 34.226925 
z
" style="fill:#e41a1c;stroke:#000000;stroke-linejoin:miter;stroke-width:0.25;"/>
   </g>
   <g id="patch_31">
    <path clip-path="url(#pec9c617903)" d="M 251.069231 88.586925 
L 259.653846 88.586925 
L 259.653846 34.226925 
L 251.069231 34.226925 
z
" style="fill:#e41a1c;stroke:#000000;stroke-linejoin:miter;stroke-width:0.25;"/>
   </g>
   <g id="patch_32">
    <path clip-path="url(#pec9c617903)" d="M 259.653846 88.586925 
L 268.238462 88.586925 
L 268.238462 34.226925 
L 259.653846 34.226925 
z
" style="fill:#e41a1c;stroke:#000000;stroke-linejoin:miter;stroke-width:0.25;"/>
   </g>
   <g id="patch_33">
    <path clip-path="url(#pec9c617903)" d="M 268.238462 88.586925 
L 276.823077 88.586925 
L 276.823077 34.226925 
L 268.238462 34.226925 
z
" style="fill:#377eb8;stroke:#000000;stroke-linejoin:miter;stroke-width:0.25;"/>
   </g>
   <g id="patch_34">
    <path clip-path="url(#pec9c617903)" d="M 276.823077 88.586925 
L 285.407692 88.586925 
L 285.407692 34.226925 
L 276.823077 34.226925 
z
" style="fill:#377eb8;stroke:#000000;stroke-linejoin:miter;stroke-width:0.25;"/>
   </g>
   <g id="patch_35">
    <path clip-path="url(#pec9c617903)" d="M 285.407692 88.586925 
L 293.992308 88.586925 
L 293.992308 34.226925 
L 285.407692 34.226925 
z
" style="fill:#377eb8;stroke:#000000;stroke-linejoin:miter;stroke-width:0.25;"/>
   </g>
   <g id="patch_36">
    <path clip-path="url(#pec9c617903)" d="M 293.992308 88.586925 
L 302.576923 88.586925 
L 302.576923 34.226925 
L 293.992308 34.226925 
z
" style="fill:#377eb8;stroke:#000000;stroke-linejoin:miter;stroke-width:0.25;"/>
   </g>
   <g id="patch_37">
    <path clip-path="url(#pec9c617903)" d="M 302.576923 88.586925 
L 311.161538 88.586925 
L 311.161538 34.226925 
L 302.576923 34.226925 
z
" style="fill:#377eb8;stroke:#000000;stroke-linejoin:miter;stroke-width:0.25;"/>
   </g>
   <g id="patch_38">
    <path clip-path="url(#pec9c617903)" d="M 311.161538 88.586925 
L 319.746154 88.586925 
L 319.746154 34.226925 
L 311.161538 34.226925 
z
" style="fill:#377eb8;stroke:#000000;stroke-linejoin:miter;stroke-width:0.25;"/>
   </g>
   <g id="patch_39">
    <path clip-path="url(#pec9c617903)" d="M 319.746154 88.586925 
L 328.330769 88.586925 
L 328.330769 34.226925 
L 319.746154 34.226925 
z
" style="fill:#377eb8;stroke:#000000;stroke-linejoin:miter;stroke-width:0.25;"/>
   </g>
   <g id="patch_40">
    <path clip-path="url(#pec9c617903)" d="M 328.330769 88.586925 
L 336.915385 88.586925 
L 336.915385 34.226925 
L 328.330769 34.226925 
z
" style="fill:#377eb8;stroke:#000000;stroke-linejoin:miter;stroke-width:0.25;"/>
   </g>
   <g id="patch_41">
    <path clip-path="url(#pec9c617903)" d="M 336.915385 88.586925 
L 345.5 88.586925 
L 345.5 34.226925 
L 336.915385 34.226925 
z
" style="fill:#377eb8;stroke:#000000;stroke-linejoin:miter;stroke-width:0.25;"/>
   </g>
   <g id="patch_42">
    <path clip-path="url(#pec9c617903)" d="M 345.5 88.586925 
L 354.084615 88.586925 
L 354.084615 34.226925 
L 345.5 34.226925 
z
" style="fill:#377eb8;stroke:#000000;stroke-linejoin:miter;stroke-width:0.25;"/>
   </g>
   <g id="patch_43">
    <path clip-path="url(#pec9c617903)" d="M 354.084615 88.586925 
L 362.669231 88.586925 
L 362.669231 34.226925 
L 354.084615 34.226925 
z
" style="fill:#377eb8;stroke:#000000;stroke-linejoin:miter;stroke-width:0.25;"/>
   </g>
   <g id="patch_44">
    <path clip-path="url(#pec9c617903)" d="M 362.669231 88.586925 
L 371.253846 88.586925 
L 371.253846 34.226925 
L 362.669231 34.226925 
z
" style="fill:#377eb8;stroke:#000000;stroke-linejoin:miter;stroke-width:0.25;"/>
   </g>
   <g id="patch_45">
    <path clip-path="url(#pec9c617903)" d="M 371.253846 88.586925 
L 379.838462 88.586925 
L 379.838462 34.226925 
L 371.253846 34.226925 
z
" style="fill:#377eb8;stroke:#000000;stroke-linejoin:miter;stroke-width:0.25;"/>
   </g>
   <g id="patch_46">
    <path clip-path="url(#pec9c617903)" d="M 379.838462 88.586925 
L 388.423077 88.586925 
L 388.423077 34.226925 
L 379.838462 34.226925 
z
" style="fill:#377eb8;stroke:#000000;stroke-linejoin:miter;stroke-width:0.25;"/>
   </g>
   <g id="patch_47">
    <path clip-path="url(#pec9c617903)" d="M 388.423077 88.586925 
L 397.007692 88.586925 
L 397.007692 34.226925 
L 388.423077 34.226925 
z
" style="fill:#377eb8;stroke:#000000;stroke-linejoin:miter;stroke-width:0.25;"/>
   </g>
   <g id="patch_48">
    <path clip-path="url(#pec9c617903)" d="M 397.007692 88.586925 
L 405.592308 88.586925 
L 405.592308 34.226925 
L 397.007692 34.226925 
z
" style="fill:#377eb8;stroke:#000000;stroke-linejoin:miter;stroke-width:0.25;"/>
   </g>
   <g id="patch_49">
    <path clip-path="url(#pec9c617903)" d="M 405.592308 88.586925 
L 414.176923 88.586925 
L 414.176923 34.226925 
L 405.592308 34.226925 
z
" style="fill:#377eb8;stroke:#000000;stroke-linejoin:miter;stroke-width:0.25;"/>
   </g>
   <g id="patch_50">
    <path clip-path="url(#pec9c617903)" d="M 414.176923 88.586925 
L 422.761538 88.586925 
L 422.761538 34.226925 
L 414.176923 34.226925 
z
" style="fill:#377eb8;stroke:#000000;stroke-linejoin:miter;stroke-width:0.25;"/>
   </g>
   <g id="patch_51">
    <path clip-path="url(#pec9c617903)" d="M 422.761538 88.586925 
L 431.346154 88.586925 
L 431.346154 34.226925 
L 422.761538 34.226925 
z
" style="fill:#377eb8;stroke:#000000;stroke-linejoin:miter;stroke-width:0.25;"/>
   </g>
   <g id="patch_52">
    <path clip-path="url(#pec9c617903)" d="M 431.346154 88.586925 
L 439.930769 88.586925 
L 439.930769 34.226925 
L 431.346154 34.226925 
z
" style="fill:#377eb8;stroke:#000000;stroke-linejoin:miter;stroke-width:0.25;"/>
   </g>
   <g id="patch_53">
    <path clip-path="url(#pec9c617903)" d="M 439.930769 88.586925 
L 448.515385 88.586925 
L 448.515385 34.226925 
L 439.930769 34.226925 
z
" style="fill:#377eb8;stroke:#000000;stroke-linejoin:miter;stroke-width:0.25;"/>
   </g>
   <g id="patch_54">
    <path clip-path="url(#pec9c617903)" d="M 448.515385 88.586925 
L 457.1 88.586925 
L 457.1 34.226925 
L 448.515385 34.226925 
z
" style="fill:#377eb8;stroke:#000000;stroke-linejoin:miter;stroke-width:0.25;"/>
   </g>
   <g id="patch_55">
    <path clip-path="url(#pec9c617903)" d="M 457.1 88.586925 
L 465.684615 88.586925 
L 465.684615 34.226925 
L 457.1 34.226925 
z
" style="fill:#377eb8;stroke:#000000;stroke-linejoin:miter;stroke-width:0.25;"/>
   </g>
   <g id="patch_56">
    <path clip-path="url(#pec9c617903)" d="M 465.684615 88.586925 
L 474.269231 88.586925 
L 474.269231 34.226925 
L 465.684615 34.226925 
z
" style="fill:#377eb8;stroke:#000000;stroke-linejoin:miter;stroke-width:0.25;"/>
   </g>
   <g id="patch_57">
    <path clip-path="url(#pec9c617903)" d="M 474.269231 88.586925 
L 482.853846 88.586925 
L 482.853846 34.226925 
L 474.269231 34.226925 
z
" style="fill:#377eb8;stroke:#000000;stroke-linejoin:miter;stroke-width:0.25;"/>
   </g>
   <g id="patch_58">
    <path clip-path="url(#pec9c617903)" d="M 482.853846 88.586925 
L 491.438462 88.586925 
L 491.438462 34.226925 
L 482.853846 34.226925 
z
" style="fill:#377eb8;stroke:#000000;stroke-linejoin:miter;stroke-width:0.25;"/>
   </g>
   <g id="patch_59">
    <path clip-path="url(#pec9c617903)" d="M 491.438462 88.586925 
L 500.023077 88.586925 
L 500.023077 34.226925 
L 491.438462 34.226925 
z
" style="fill:#377eb8;stroke:#000000;stroke-linejoin:miter;stroke-width:0.25;"/>
   </g>
   <g id="patch_60">
    <path clip-path="url(#pec9c617903)" d="M 500.023077 88.586925 
L 508.607692 88.586925 
L 508.607692 34.226925 
L 500.023077 34.226925 
z
" style="fill:#377eb8;stroke:#000000;stroke-linejoin:miter;stroke-width:0.25;"/>
   </g>
   <g id="patch_61">
    <path clip-path="url(#pec9c617903)" d="M 508.607692 88.586925 
L 517.192308 88.586925 
L 517.192308 34.226925 
L 508.607692 34.226925 
z
" style="fill:#377eb8;stroke:#000000;stroke-linejoin:miter;stroke-width:0.25;"/>
   </g>
   <g id="patch_62">
    <path clip-path="url(#pec9c617903)" d="M 517.192308 88.586925 
L 525.776923 88.586925 
L 525.776923 34.226925 
L 517.192308 34.226925 
z
" style="fill:#377eb8;stroke:#000000;stroke-linejoin:miter;stroke-width:0.25;"/>
   </g>
   <g id="patch_63">
    <path clip-path="url(#pec9c617903)" d="M 525.776923 88.586925 
L 534.361538 88.586925 
L 534.361538 34.226925 
L 525.776923 34.226925 
z
" style="fill:#377eb8;stroke:#000000;stroke-linejoin:miter;stroke-width:0.25;"/>
   </g>
   <g id="patch_64">
    <path clip-path="url(#pec9c617903)" d="M 534.361538 88.586925 
L 542.946154 88.586925 
L 542.946154 34.226925 
L 534.361538 34.226925 
z
" style="fill:#377eb8;stroke:#000000;stroke-linejoin:miter;stroke-width:0.25;"/>
   </g>
   <g id="patch_65">
    <path clip-path="url(#pec9c617903)" d="M 542.946154 88.586925 
L 551.530769 88.586925 
L 551.530769 34.226925 
L 542.946154 34.226925 
z
" style="fill:#377eb8;stroke:#000000;stroke-linejoin:miter;stroke-width:0.25;"/>
   </g>
   <g id="patch_66">
    <path clip-path="url(#pec9c617903)" d="M 551.530769 88.586925 
L 560.115385 88.586925 
L 560.115385 34.226925 
L 551.530769 34.226925 
z
" style="fill:#377eb8;stroke:#000000;stroke-linejoin:miter;stroke-width:0.25;"/>
   </g>
   <g id="patch_67">
    <path clip-path="url(#pec9c617903)" d="M 560.115385 88.586925 
L 568.7 88.586925 
L 568.7 34.226925 
L 560.115385 34.226925 
z
" style="fill:#377eb8;stroke:#000000;stroke-linejoin:miter;stroke-width:0.25;"/>
   </g>
   <g id="patch_68">
    <path clip-path="url(#pec9c617903)" d="M 568.7 88.586925 
L 577.284615 88.586925 
L 577.284615 34.226925 
L 568.7 34.226925 
z
" style="fill:#377eb8;stroke:#000000;stroke-linejoin:miter;stroke-width:0.25;"/>
   </g>
   <g id="patch_69">
    <path clip-path="url(#pec9c617903)" d="M 577.284615 88.586925 
L 585.869231 88.586925 
L 585.869231 34.226925 
L 577.284615 34.226925 
z
" style="fill:#377eb8;stroke:#000000;stroke-linejoin:miter;stroke-width:0.25;"/>
   </g>
   <g id="patch_70">
    <path clip-path="url(#pec9c617903)" d="M 585.869231 88.586925 
L 594.453846 88.586925 
L 594.453846 34.226925 
L 585.869231 34.226925 
z
" style="fill:#377eb8;stroke:#000000;stroke-linejoin:miter;stroke-width:0.25;"/>
   </g>
   <g id="patch_71">
    <path clip-path="url(#pec9c617903)" d="M 594.453846 88.586925 
L 603.038462 88.586925 
L 603.038462 34.226925 
L 594.453846 34.226925 
z
" style="fill:#377eb8;stroke:#000000;stroke-linejoin:miter;stroke-width:0.25;"/>
   </g>
   <g id="patch_72">
    <path clip-path="url(#pec9c617903)" d="M 603.038462 88.586925 
L 611.623077 88.586925 
L 611.623077 34.226925 
L 603.038462 34.226925 
z
" style="fill:#377eb8;stroke:#000000;stroke-linejoin:miter;stroke-width:0.25;"/>
   </g>
   <g id="patch_73">
    <path clip-path="url(#pec9c617903)" d="M 611.623077 88.586925 
L 620.207692 88.586925 
L 620.207692 34.226925 
L 611.623077 34.226925 
z
" style="fill:#377eb8;stroke:#000000;stroke-linejoin:miter;stroke-width:0.25;"/>
   </g>
   <g id="patch_74">
    <path clip-path="url(#pec9c617903)" d="M 620.207692 88.586925 
L 628.792308 88.586925 
L 628.792308 34.226925 
L 620.207692 34.226925 
z
" style="fill:#377eb8;stroke:#000000;stroke-linejoin:miter;stroke-width:0.25;"/>
   </g>
   <g id="patch_75">
    <path clip-path="url(#pec9c617903)" d="M 628.792308 88.586925 
L 637.376923 88.586925 
L 637.376923 34.226925 
L 628.792308 34.226925 
z
" style="fill:#377eb8;stroke:#000000;stroke-linejoin:miter;stroke-width:0.25;"/>
   </g>
   <g id="patch_76">
    <path clip-path="url(#pec9c617903)" d="M 637.376923 88.586925 
L 645.961538 88.586925 
L 645.961538 34.226925 
L 637.376923 34.226925 
z
" style="fill:#377eb8;stroke:#000000;stroke-linejoin:miter;stroke-width:0.25;"/>
   </g>
   <g id="patch_77">
    <path clip-path="url(#pec9c617903)" d="M 645.961538 88.586925 
L 654.546154 88.586925 
L 654.546154 34.226925 
L 645.961538 34.226925 
z
" style="fill:#377eb8;stroke:#000000;stroke-linejoin:miter;stroke-width:0.25;"/>
   </g>
   <g id="patch_78">
    <path clip-path="url(#pec9c617903)" d="M 654.546154 88.586925 
L 663.130769 88.586925 
L 663.130769 34.226925 
L 654.546154 34.226925 
z
" style="fill:#377eb8;stroke:#000000;stroke-linejoin:miter;stroke-width:0.25;"/>
   </g>
   <g id="patch_79">
    <path clip-path="url(#pec9c617903)" d="M 663.130769 88.586925 
L 671.715385 88.586925 
L 671.715385 34.226925 
L 663.130769 34.226925 
z
" style="fill:#377eb8;stroke:#000000;stroke-linejoin:miter;stroke-width:0.25;"/>
   </g>
   <g id="patch_80">
    <path clip-path="url(#pec9c617903)" d="M 671.715385 88.586925 
L 680.3 88.586925 
L 680.3 34.226925 
L 671.715385 34.226925 
z
" style="fill:#377eb8;stroke:#000000;stroke-linejoin:miter;stroke-width:0.25;"/>
   </g>
   <g id="patch_81">
    <path clip-path="url(#pec9c617903)" d="M 680.3 88.586925 
L 688.884615 88.586925 
L 688.884615 34.226925 
L 680.3 34.226925 
z
" style="fill:#377eb8;stroke:#000000;stroke-linejoin:miter;stroke-width:0.25;"/>
   </g>
   <g id="patch_82">
    <path clip-path="url(#pec9c617903)" d="M 688.884615 88.586925 
L 697.469231 88.586925 
L 697.469231 34.226925 
L 688.884615 34.226925 
z
" style="fill:#377eb8;stroke:#000000;stroke-linejoin:miter;stroke-width:0.25;"/>
   </g>
   <g id="patch_83">
    <path clip-path="url(#pec9c617903)" d="M 697.469231 88.586925 
L 706.053846 88.586925 
L 706.053846 34.226925 
L 697.469231 34.226925 
z
" style="fill:#377eb8;stroke:#000000;stroke-linejoin:miter;stroke-width:0.25;"/>
   </g>
   <g id="patch_84">
    <path clip-path="url(#pec9c617903)" d="M 706.053846 88.586925 
L 714.638462 88.586925 
L 714.638462 34.226925 
L 706.053846 34.226925 
z
" style="fill:#377eb8;stroke:#000000;stroke-linejoin:miter;stroke-width:0.25;"/>
   </g>
   <g id="patch_85">
    <path clip-path="url(#pec9c617903)" d="M 714.638462 88.586925 
L 723.223077 88.586925 
L 723.223077 34.226925 
L 714.638462 34.226925 
z
" style="fill:#377eb8;stroke:#000000;stroke-linejoin:miter;stroke-width:0.25;"/>
   </g>
   <g id="patch_86">
    <path clip-path="url(#pec9c617903)" d="M 723.223077 88.586925 
L 731.807692 88.586925 
L 731.807692 34.226925 
L 723.223077 34.226925 
z
" style="fill:#377eb8;stroke:#000000;stroke-linejoin:miter;stroke-width:0.25;"/>
   </g>
   <g id="patch_87">
    <path clip-path="url(#pec9c617903)" d="M 731.807692 88.586925 
L 740.392308 88.586925 
L 740.392308 34.226925 
L 731.807692 34.226925 
z
" style="fill:#377eb8;stroke:#000000;stroke-linejoin:miter;stroke-width:0.25;"/>
   </g>
   <g id="patch_88">
    <path clip-path="url(#pec9c617903)" d="M 740.392308 88.586925 
L 748.976923 88.586925 
L 748.976923 34.226925 
L 740.392308 34.226925 
z
" style="fill:#377eb8;stroke:#000000;stroke-linejoin:miter;stroke-width:0.25;"/>
   </g>
   <g id="patch_89">
    <path clip-path="url(#pec9c617903)" d="M 748.976923 88.586925 
L 757.561538 88.586925 
L 757.561538 34.226925 
L 748.976923 34.226925 
z
" style="fill:#377eb8;stroke:#000000;stroke-linejoin:miter;stroke-width:0.25;"/>
   </g>
   <g id="patch_90">
    <path clip-path="url(#pec9c617903)" d="M 757.561538 88.586925 
L 766.146154 88.586925 
L 766.146154 34.226925 
L 757.561538 34.226925 
z
" style="fill:#377eb8;stroke:#000000;stroke-linejoin:miter;stroke-width:0.25;"/>
   </g>
   <g id="patch_91">
    <path clip-path="url(#pec9c617903)" d="M 766.146154 88.586925 
L 774.730769 88.586925 
L 774.730769 34.226925 
L 766.146154 34.226925 
z
" style="fill:#377eb8;stroke:#000000;stroke-linejoin:miter;stroke-width:0.25;"/>
   </g>
   <g id="patch_92">
    <path clip-path="url(#pec9c617903)" d="M 774.730769 88.586925 
L 783.315385 88.586925 
L 783.315385 34.226925 
L 774.730769 34.226925 
z
" style="fill:#377eb8;stroke:#000000;stroke-linejoin:miter;stroke-width:0.25;"/>
   </g>
   <g id="patch_93">
    <path clip-path="url(#pec9c617903)" d="M 783.315385 88.586925 
L 791.9 88.586925 
L 791.9 34.226925 
L 783.315385 34.226925 
z
" style="fill:#377eb8;stroke:#000000;stroke-linejoin:miter;stroke-width:0.25;"/>
   </g>
   <g id="patch_94">
    <path clip-path="url(#pec9c617903)" d="M 791.9 88.586925 
L 800.484615 88.586925 
L 800.484615 34.226925 
L 791.9 34.226925 
z
" style="fill:#377eb8;stroke:#000000;stroke-linejoin:miter;stroke-width:0.25;"/>
   </g>
   <g id="patch_95">
    <path clip-path="url(#pec9c617903)" d="M 800.484615 88.586925 
L 809.069231 88.586925 
L 809.069231 34.226925 
L 800.484615 34.226925 
z
" style="fill:#377eb8;stroke:#000000;stroke-linejoin:miter;stroke-width:0.25;"/>
   </g>
   <g id="patch_96">
    <path clip-path="url(#pec9c617903)" d="M 809.069231 88.586925 
L 817.653846 88.586925 
L 817.653846 34.226925 
L 809.069231 34.226925 
z
" style="fill:#377eb8;stroke:#000000;stroke-linejoin:miter;stroke-width:0.25;"/>
   </g>
   <g id="patch_97">
    <path clip-path="url(#pec9c617903)" d="M 817.653846 88.586925 
L 826.238462 88.586925 
L 826.238462 34.226925 
L 817.653846 34.226925 
z
" style="fill:#377eb8;stroke:#000000;stroke-linejoin:miter;stroke-width:0.25;"/>
   </g>
   <g id="patch_98">
    <path clip-path="url(#pec9c617903)" d="M 826.238462 88.586925 
L 834.823077 88.586925 
L 834.823077 34.226925 
L 826.238462 34.226925 
z
" style="fill:#377eb8;stroke:#000000;stroke-linejoin:miter;stroke-width:0.25;"/>
   </g>
   <g id="patch_99">
    <path clip-path="url(#pec9c617903)" d="M 834.823077 88.586925 
L 843.407692 88.586925 
L 843.407692 34.226925 
L 834.823077 34.226925 
z
" style="fill:#377eb8;stroke:#000000;stroke-linejoin:miter;stroke-width:0.25;"/>
   </g>
   <g id="patch_100">
    <path clip-path="url(#pec9c617903)" d="M 843.407692 88.586925 
L 851.992308 88.586925 
L 851.992308 34.226925 
L 843.407692 34.226925 
z
" style="fill:#377eb8;stroke:#000000;stroke-linejoin:miter;stroke-width:0.25;"/>
   </g>
   <g id="patch_101">
    <path clip-path="url(#pec9c617903)" d="M 851.992308 88.586925 
L 860.576923 88.586925 
L 860.576923 34.226925 
L 851.992308 34.226925 
z
" style="fill:#377eb8;stroke:#000000;stroke-linejoin:miter;stroke-width:0.25;"/>
   </g>
   <g id="patch_102">
    <path clip-path="url(#pec9c617903)" d="M 860.576923 88.586925 
L 869.161538 88.586925 
L 869.161538 34.226925 
L 860.576923 34.226925 
z
" style="fill:#377eb8;stroke:#000000;stroke-linejoin:miter;stroke-width:0.25;"/>
   </g>
   <g id="patch_103">
    <path clip-path="url(#pec9c617903)" d="M 869.161538 88.586925 
L 877.746154 88.586925 
L 877.746154 34.226925 
L 869.161538 34.226925 
z
" style="fill:#377eb8;stroke:#000000;stroke-linejoin:miter;stroke-width:0.25;"/>
   </g>
   <g id="patch_104">
    <path clip-path="url(#pec9c617903)" d="M 877.746154 88.586925 
L 886.330769 88.586925 
L 886.330769 34.226925 
L 877.746154 34.226925 
z
" style="fill:#377eb8;stroke:#000000;stroke-linejoin:miter;stroke-width:0.25;"/>
   </g>
   <g id="patch_105">
    <path clip-path="url(#pec9c617903)" d="M 886.330769 88.586925 
L 894.915385 88.586925 
L 894.915385 34.226925 
L 886.330769 34.226925 
z
" style="fill:#377eb8;stroke:#000000;stroke-linejoin:miter;stroke-width:0.25;"/>
   </g>
   <g id="patch_106">
    <path clip-path="url(#pec9c617903)" d="M 894.915385 88.586925 
L 903.5 88.586925 
L 903.5 34.226925 
L 894.915385 34.226925 
z
" style="fill:#377eb8;stroke:#000000;stroke-linejoin:miter;stroke-width:0.25;"/>
   </g>
   <g id="patch_107">
    <path clip-path="url(#pec9c617903)" d="M 903.5 88.586925 
L 912.084615 88.586925 
L 912.084615 34.226925 
L 903.5 34.226925 
z
" style="fill:#377eb8;stroke:#000000;stroke-linejoin:miter;stroke-width:0.25;"/>
   </g>
   <g id="patch_108">
    <path clip-path="url(#pec9c617903)" d="M 912.084615 88.586925 
L 920.669231 88.586925 
L 920.669231 34.226925 
L 912.084615 34.226925 
z
" style="fill:#377eb8;stroke:#000000;stroke-linejoin:miter;stroke-width:0.25;"/>
   </g>
   <g id="patch_109">
    <path clip-path="url(#pec9c617903)" d="M 920.669231 88.586925 
L 929.253846 88.586925 
L 929.253846 34.226925 
L 920.669231 34.226925 
z
" style="fill:#377eb8;stroke:#000000;stroke-linejoin:miter;stroke-width:0.25;"/>
   </g>
   <g id="patch_110">
    <path clip-path="url(#pec9c617903)" d="M 929.253846 88.586925 
L 937.838462 88.586925 
L 937.838462 34.226925 
L 929.253846 34.226925 
z
" style="fill:#377eb8;stroke:#000000;stroke-linejoin:miter;stroke-width:0.25;"/>
   </g>
   <g id="patch_111">
    <path clip-path="url(#pec9c617903)" d="M 937.838462 88.586925 
L 946.423077 88.586925 
L 946.423077 34.226925 
L 937.838462 34.226925 
z
" style="fill:#377eb8;stroke:#000000;stroke-linejoin:miter;stroke-width:0.25;"/>
   </g>
   <g id="patch_112">
    <path clip-path="url(#pec9c617903)" d="M 946.423077 88.586925 
L 955.007692 88.586925 
L 955.007692 34.226925 
L 946.423077 34.226925 
z
" style="fill:#377eb8;stroke:#000000;stroke-linejoin:miter;stroke-width:0.25;"/>
   </g>
   <g id="patch_113">
    <path clip-path="url(#pec9c617903)" d="M 955.007692 88.586925 
L 963.592308 88.586925 
L 963.592308 34.226925 
L 955.007692 34.226925 
z
" style="fill:#377eb8;stroke:#000000;stroke-linejoin:miter;stroke-width:0.25;"/>
   </g>
   <g id="patch_114">
    <path clip-path="url(#pec9c617903)" d="M 963.592308 88.586925 
L 972.176923 88.586925 
L 972.176923 34.226925 
L 963.592308 34.226925 
z
" style="fill:#377eb8;stroke:#000000;stroke-linejoin:miter;stroke-width:0.25;"/>
   </g>
   <g id="patch_115">
    <path clip-path="url(#pec9c617903)" d="M 972.176923 88.586925 
L 980.761538 88.586925 
L 980.761538 34.226925 
L 972.176923 34.226925 
z
" style="fill:#377eb8;stroke:#000000;stroke-linejoin:miter;stroke-width:0.25;"/>
   </g>
   <g id="patch_116">
    <path clip-path="url(#pec9c617903)" d="M 980.761538 88.586925 
L 989.346154 88.586925 
L 989.346154 34.226925 
L 980.761538 34.226925 
z
" style="fill:#377eb8;stroke:#000000;stroke-linejoin:miter;stroke-width:0.25;"/>
   </g>
   <g id="patch_117">
    <path clip-path="url(#pec9c617903)" d="M 989.346154 88.586925 
L 997.930769 88.586925 
L 997.930769 34.226925 
L 989.346154 34.226925 
z
" style="fill:#377eb8;stroke:#000000;stroke-linejoin:miter;stroke-width:0.25;"/>
   </g>
   <g id="patch_118">
    <path clip-path="url(#pec9c617903)" d="M 997.930769 88.586925 
L 1006.515385 88.586925 
L 1006.515385 34.226925 
L 997.930769 34.226925 
z
" style="fill:#377eb8;stroke:#000000;stroke-linejoin:miter;stroke-width:0.25;"/>
   </g>
   <g id="patch_119">
    <path clip-path="url(#pec9c617903)" d="M 1006.515385 88.586925 
L 1015.1 88.586925 
L 1015.1 34.226925 
L 1006.515385 34.226925 
z
" style="fill:#377eb8;stroke:#000000;stroke-linejoin:miter;stroke-width:0.25;"/>
   </g>
   <g id="patch_120">
    <path clip-path="url(#pec9c617903)" d="M 1015.1 88.586925 
L 1023.684615 88.586925 
L 1023.684615 34.226925 
L 1015.1 34.226925 
z
" style="fill:#377eb8;stroke:#000000;stroke-linejoin:miter;stroke-width:0.25;"/>
   </g>
   <g id="patch_121">
    <path clip-path="url(#pec9c617903)" d="M 1023.684615 88.586925 
L 1032.269231 88.586925 
L 1032.269231 34.226925 
L 1023.684615 34.226925 
z
" style="fill:#377eb8;stroke:#000000;stroke-linejoin:miter;stroke-width:0.25;"/>
   </g>
   <g id="patch_122">
    <path clip-path="url(#pec9c617903)" d="M 1032.269231 88.586925 
L 1040.853846 88.586925 
L 1040.853846 34.226925 
L 1032.269231 34.226925 
z
" style="fill:#377eb8;stroke:#000000;stroke-linejoin:miter;stroke-width:0.25;"/>
   </g>
   <g id="patch_123">
    <path clip-path="url(#pec9c617903)" d="M 1040.853846 88.586925 
L 1049.438462 88.586925 
L 1049.438462 34.226925 
L 1040.853846 34.226925 
z
" style="fill:#377eb8;stroke:#000000;stroke-linejoin:miter;stroke-width:0.25;"/>
   </g>
   <g id="patch_124">
    <path clip-path="url(#pec9c617903)" d="M 1049.438462 88.586925 
L 1058.023077 88.586925 
L 1058.023077 34.226925 
L 1049.438462 34.226925 
z
" style="fill:#377eb8;stroke:#000000;stroke-linejoin:miter;stroke-width:0.25;"/>
   </g>
   <g id="patch_125">
    <path clip-path="url(#pec9c617903)" d="M 1058.023077 88.586925 
L 1066.607692 88.586925 
L 1066.607692 34.226925 
L 1058.023077 34.226925 
z
" style="fill:#377eb8;stroke:#000000;stroke-linejoin:miter;stroke-width:0.25;"/>
   </g>
   <g id="patch_126">
    <path clip-path="url(#pec9c617903)" d="M 1066.607692 88.586925 
L 1075.192308 88.586925 
L 1075.192308 34.226925 
L 1066.607692 34.226925 
z
" style="fill:#377eb8;stroke:#000000;stroke-linejoin:miter;stroke-width:0.25;"/>
   </g>
   <g id="patch_127">
    <path clip-path="url(#pec9c617903)" d="M 1075.192308 88.586925 
L 1083.776923 88.586925 
L 1083.776923 34.226925 
L 1075.192308 34.226925 
z
" style="fill:#377eb8;stroke:#000000;stroke-linejoin:miter;stroke-width:0.25;"/>
   </g>
   <g id="patch_128">
    <path clip-path="url(#pec9c617903)" d="M 1083.776923 88.586925 
L 1092.361538 88.586925 
L 1092.361538 34.226925 
L 1083.776923 34.226925 
z
" style="fill:#377eb8;stroke:#000000;stroke-linejoin:miter;stroke-width:0.25;"/>
   </g>
   <g id="patch_129">
    <path clip-path="url(#pec9c617903)" d="M 1092.361538 88.586925 
L 1100.946154 88.586925 
L 1100.946154 34.226925 
L 1092.361538 34.226925 
z
" style="fill:#377eb8;stroke:#000000;stroke-linejoin:miter;stroke-width:0.25;"/>
   </g>
   <g id="patch_130">
    <path clip-path="url(#pec9c617903)" d="M 1100.946154 88.586925 
L 1109.530769 88.586925 
L 1109.530769 34.226925 
L 1100.946154 34.226925 
z
" style="fill:#377eb8;stroke:#000000;stroke-linejoin:miter;stroke-width:0.25;"/>
   </g>
   <g id="patch_131">
    <path clip-path="url(#pec9c617903)" d="M 1109.530769 88.586925 
L 1118.115385 88.586925 
L 1118.115385 34.226925 
L 1109.530769 34.226925 
z
" style="fill:#377eb8;stroke:#000000;stroke-linejoin:miter;stroke-width:0.25;"/>
   </g>
   <g id="patch_132">
    <path clip-path="url(#pec9c617903)" d="M 1118.115385 88.586925 
L 1126.7 88.586925 
L 1126.7 34.226925 
L 1118.115385 34.226925 
z
" style="fill:#377eb8;stroke:#000000;stroke-linejoin:miter;stroke-width:0.25;"/>
   </g>
   <g id="matplotlib.axis_1">
    <g id="xtick_1">
     <g id="line2d_1">
      <defs>
       <path d="M 0 0 
L 0 3.5 
" id="mc52c5fa52f" style="stroke:#000000;stroke-width:0.8;"/>
      </defs>
      <g>
       <use style="stroke:#000000;stroke-width:0.8;" x="10.7" xlink:href="#mc52c5fa52f" y="88.586925"/>
      </g>
     </g>
     <g id="text_1">
      <!-- 0 -->
      <g transform="translate(7.51875 103.185362)scale(0.1 -0.1)">
       <defs>
        <path d="M 31.78125 66.40625 
Q 24.171875 66.40625 20.328125 58.90625 
Q 16.5 51.421875 16.5 36.375 
Q 16.5 21.390625 20.328125 13.890625 
Q 24.171875 6.390625 31.78125 6.390625 
Q 39.453125 6.390625 43.28125 13.890625 
Q 47.125 21.390625 47.125 36.375 
Q 47.125 51.421875 43.28125 58.90625 
Q 39.453125 66.40625 31.78125 66.40625 
z
M 31.78125 74.21875 
Q 44.046875 74.21875 50.515625 64.515625 
Q 56.984375 54.828125 56.984375 36.375 
Q 56.984375 17.96875 50.515625 8.265625 
Q 44.046875 -1.421875 31.78125 -1.421875 
Q 19.53125 -1.421875 13.0625 8.265625 
Q 6.59375 17.96875 6.59375 36.375 
Q 6.59375 54.828125 13.0625 64.515625 
Q 19.53125 74.21875 31.78125 74.21875 
z
" id="DejaVuSans-48"/>
       </defs>
       <use xlink:href="#DejaVuSans-48"/>
      </g>
     </g>
    </g>
    <g id="xtick_2">
     <g id="line2d_2">
      <g>
       <use style="stroke:#000000;stroke-width:0.8;" x="182.392308" xlink:href="#mc52c5fa52f" y="88.586925"/>
      </g>
     </g>
     <g id="text_2">
      <!-- 20 -->
      <g transform="translate(176.029808 103.185362)scale(0.1 -0.1)">
       <defs>
        <path d="M 19.1875 8.296875 
L 53.609375 8.296875 
L 53.609375 0 
L 7.328125 0 
L 7.328125 8.296875 
Q 12.9375 14.109375 22.625 23.890625 
Q 32.328125 33.6875 34.8125 36.53125 
Q 39.546875 41.84375 41.421875 45.53125 
Q 43.3125 49.21875 43.3125 52.78125 
Q 43.3125 58.59375 39.234375 62.25 
Q 35.15625 65.921875 28.609375 65.921875 
Q 23.96875 65.921875 18.8125 64.3125 
Q 13.671875 62.703125 7.8125 59.421875 
L 7.8125 69.390625 
Q 13.765625 71.78125 18.9375 73 
Q 24.125 74.21875 28.421875 74.21875 
Q 39.75 74.21875 46.484375 68.546875 
Q 53.21875 62.890625 53.21875 53.421875 
Q 53.21875 48.921875 51.53125 44.890625 
Q 49.859375 40.875 45.40625 35.40625 
Q 44.1875 33.984375 37.640625 27.21875 
Q 31.109375 20.453125 19.1875 8.296875 
z
" id="DejaVuSans-50"/>
       </defs>
       <use xlink:href="#DejaVuSans-50"/>
       <use x="63.623047" xlink:href="#DejaVuSans-48"/>
      </g>
     </g>
    </g>
    <g id="xtick_3">
     <g id="line2d_3">
      <g>
       <use style="stroke:#000000;stroke-width:0.8;" x="354.084615" xlink:href="#mc52c5fa52f" y="88.586925"/>
      </g>
     </g>
     <g id="text_3">
      <!-- 40 -->
      <g transform="translate(347.722115 103.185362)scale(0.1 -0.1)">
       <defs>
        <path d="M 37.796875 64.3125 
L 12.890625 25.390625 
L 37.796875 25.390625 
z
M 35.203125 72.90625 
L 47.609375 72.90625 
L 47.609375 25.390625 
L 58.015625 25.390625 
L 58.015625 17.1875 
L 47.609375 17.1875 
L 47.609375 0 
L 37.796875 0 
L 37.796875 17.1875 
L 4.890625 17.1875 
L 4.890625 26.703125 
z
" id="DejaVuSans-52"/>
       </defs>
       <use xlink:href="#DejaVuSans-52"/>
       <use x="63.623047" xlink:href="#DejaVuSans-48"/>
      </g>
     </g>
    </g>
    <g id="xtick_4">
     <g id="line2d_4">
      <g>
       <use style="stroke:#000000;stroke-width:0.8;" x="525.776923" xlink:href="#mc52c5fa52f" y="88.586925"/>
      </g>
     </g>
     <g id="text_4">
      <!-- 60 -->
      <g transform="translate(519.414423 103.185362)scale(0.1 -0.1)">
       <defs>
        <path d="M 33.015625 40.375 
Q 26.375 40.375 22.484375 35.828125 
Q 18.609375 31.296875 18.609375 23.390625 
Q 18.609375 15.53125 22.484375 10.953125 
Q 26.375 6.390625 33.015625 6.390625 
Q 39.65625 6.390625 43.53125 10.953125 
Q 47.40625 15.53125 47.40625 23.390625 
Q 47.40625 31.296875 43.53125 35.828125 
Q 39.65625 40.375 33.015625 40.375 
z
M 52.59375 71.296875 
L 52.59375 62.3125 
Q 48.875 64.0625 45.09375 64.984375 
Q 41.3125 65.921875 37.59375 65.921875 
Q 27.828125 65.921875 22.671875 59.328125 
Q 17.53125 52.734375 16.796875 39.40625 
Q 19.671875 43.65625 24.015625 45.921875 
Q 28.375 48.1875 33.59375 48.1875 
Q 44.578125 48.1875 50.953125 41.515625 
Q 57.328125 34.859375 57.328125 23.390625 
Q 57.328125 12.15625 50.6875 5.359375 
Q 44.046875 -1.421875 33.015625 -1.421875 
Q 20.359375 -1.421875 13.671875 8.265625 
Q 6.984375 17.96875 6.984375 36.375 
Q 6.984375 53.65625 15.1875 63.9375 
Q 23.390625 74.21875 37.203125 74.21875 
Q 40.921875 74.21875 44.703125 73.484375 
Q 48.484375 72.75 52.59375 71.296875 
z
" id="DejaVuSans-54"/>
       </defs>
       <use xlink:href="#DejaVuSans-54"/>
       <use x="63.623047" xlink:href="#DejaVuSans-48"/>
      </g>
     </g>
    </g>
    <g id="xtick_5">
     <g id="line2d_5">
      <g>
       <use style="stroke:#000000;stroke-width:0.8;" x="697.469231" xlink:href="#mc52c5fa52f" y="88.586925"/>
      </g>
     </g>
     <g id="text_5">
      <!-- 80 -->
      <g transform="translate(691.106731 103.185362)scale(0.1 -0.1)">
       <defs>
        <path d="M 31.78125 34.625 
Q 24.75 34.625 20.71875 30.859375 
Q 16.703125 27.09375 16.703125 20.515625 
Q 16.703125 13.921875 20.71875 10.15625 
Q 24.75 6.390625 31.78125 6.390625 
Q 38.8125 6.390625 42.859375 10.171875 
Q 46.921875 13.96875 46.921875 20.515625 
Q 46.921875 27.09375 42.890625 30.859375 
Q 38.875 34.625 31.78125 34.625 
z
M 21.921875 38.8125 
Q 15.578125 40.375 12.03125 44.71875 
Q 8.5 49.078125 8.5 55.328125 
Q 8.5 64.0625 14.71875 69.140625 
Q 20.953125 74.21875 31.78125 74.21875 
Q 42.671875 74.21875 48.875 69.140625 
Q 55.078125 64.0625 55.078125 55.328125 
Q 55.078125 49.078125 51.53125 44.71875 
Q 48 40.375 41.703125 38.8125 
Q 48.828125 37.15625 52.796875 32.3125 
Q 56.78125 27.484375 56.78125 20.515625 
Q 56.78125 9.90625 50.3125 4.234375 
Q 43.84375 -1.421875 31.78125 -1.421875 
Q 19.734375 -1.421875 13.25 4.234375 
Q 6.78125 9.90625 6.78125 20.515625 
Q 6.78125 27.484375 10.78125 32.3125 
Q 14.796875 37.15625 21.921875 38.8125 
z
M 18.3125 54.390625 
Q 18.3125 48.734375 21.84375 45.5625 
Q 25.390625 42.390625 31.78125 42.390625 
Q 38.140625 42.390625 41.71875 45.5625 
Q 45.3125 48.734375 45.3125 54.390625 
Q 45.3125 60.0625 41.71875 63.234375 
Q 38.140625 66.40625 31.78125 66.40625 
Q 25.390625 66.40625 21.84375 63.234375 
Q 18.3125 60.0625 18.3125 54.390625 
z
" id="DejaVuSans-56"/>
       </defs>
       <use xlink:href="#DejaVuSans-56"/>
       <use x="63.623047" xlink:href="#DejaVuSans-48"/>
      </g>
     </g>
    </g>
    <g id="xtick_6">
     <g id="line2d_6">
      <g>
       <use style="stroke:#000000;stroke-width:0.8;" x="869.161538" xlink:href="#mc52c5fa52f" y="88.586925"/>
      </g>
     </g>
     <g id="text_6">
      <!-- 100 -->
      <g transform="translate(859.617788 103.185362)scale(0.1 -0.1)">
       <defs>
        <path d="M 12.40625 8.296875 
L 28.515625 8.296875 
L 28.515625 63.921875 
L 10.984375 60.40625 
L 10.984375 69.390625 
L 28.421875 72.90625 
L 38.28125 72.90625 
L 38.28125 8.296875 
L 54.390625 8.296875 
L 54.390625 0 
L 12.40625 0 
z
" id="DejaVuSans-49"/>
       </defs>
       <use xlink:href="#DejaVuSans-49"/>
       <use x="63.623047" xlink:href="#DejaVuSans-48"/>
       <use x="127.246094" xlink:href="#DejaVuSans-48"/>
      </g>
     </g>
    </g>
    <g id="xtick_7">
     <g id="line2d_7">
      <g>
       <use style="stroke:#000000;stroke-width:0.8;" x="1040.853846" xlink:href="#mc52c5fa52f" y="88.586925"/>
      </g>
     </g>
     <g id="text_7">
      <!-- 120 -->
      <g transform="translate(1031.310096 103.185362)scale(0.1 -0.1)">
       <use xlink:href="#DejaVuSans-49"/>
       <use x="63.623047" xlink:href="#DejaVuSans-50"/>
       <use x="127.246094" xlink:href="#DejaVuSans-48"/>
      </g>
     </g>
    </g>
    <g id="text_8">
     <!-- distance [nm] -->
     <g transform="translate(533.983594 116.863487)scale(0.1 -0.1)">
      <defs>
       <path d="M 45.40625 46.390625 
L 45.40625 75.984375 
L 54.390625 75.984375 
L 54.390625 0 
L 45.40625 0 
L 45.40625 8.203125 
Q 42.578125 3.328125 38.25 0.953125 
Q 33.9375 -1.421875 27.875 -1.421875 
Q 17.96875 -1.421875 11.734375 6.484375 
Q 5.515625 14.40625 5.515625 27.296875 
Q 5.515625 40.1875 11.734375 48.09375 
Q 17.96875 56 27.875 56 
Q 33.9375 56 38.25 53.625 
Q 42.578125 51.265625 45.40625 46.390625 
z
M 14.796875 27.296875 
Q 14.796875 17.390625 18.875 11.75 
Q 22.953125 6.109375 30.078125 6.109375 
Q 37.203125 6.109375 41.296875 11.75 
Q 45.40625 17.390625 45.40625 27.296875 
Q 45.40625 37.203125 41.296875 42.84375 
Q 37.203125 48.484375 30.078125 48.484375 
Q 22.953125 48.484375 18.875 42.84375 
Q 14.796875 37.203125 14.796875 27.296875 
z
" id="DejaVuSans-100"/>
       <path d="M 9.421875 54.6875 
L 18.40625 54.6875 
L 18.40625 0 
L 9.421875 0 
z
M 9.421875 75.984375 
L 18.40625 75.984375 
L 18.40625 64.59375 
L 9.421875 64.59375 
z
" id="DejaVuSans-105"/>
       <path d="M 44.28125 53.078125 
L 44.28125 44.578125 
Q 40.484375 46.53125 36.375 47.5 
Q 32.28125 48.484375 27.875 48.484375 
Q 21.1875 48.484375 17.84375 46.4375 
Q 14.5 44.390625 14.5 40.28125 
Q 14.5 37.15625 16.890625 35.375 
Q 19.28125 33.59375 26.515625 31.984375 
L 29.59375 31.296875 
Q 39.15625 29.25 43.1875 25.515625 
Q 47.21875 21.78125 47.21875 15.09375 
Q 47.21875 7.46875 41.1875 3.015625 
Q 35.15625 -1.421875 24.609375 -1.421875 
Q 20.21875 -1.421875 15.453125 -0.5625 
Q 10.6875 0.296875 5.421875 2 
L 5.421875 11.28125 
Q 10.40625 8.6875 15.234375 7.390625 
Q 20.0625 6.109375 24.8125 6.109375 
Q 31.15625 6.109375 34.5625 8.28125 
Q 37.984375 10.453125 37.984375 14.40625 
Q 37.984375 18.0625 35.515625 20.015625 
Q 33.0625 21.96875 24.703125 23.78125 
L 21.578125 24.515625 
Q 13.234375 26.265625 9.515625 29.90625 
Q 5.8125 33.546875 5.8125 39.890625 
Q 5.8125 47.609375 11.28125 51.796875 
Q 16.75 56 26.8125 56 
Q 31.78125 56 36.171875 55.265625 
Q 40.578125 54.546875 44.28125 53.078125 
z
" id="DejaVuSans-115"/>
       <path d="M 18.3125 70.21875 
L 18.3125 54.6875 
L 36.8125 54.6875 
L 36.8125 47.703125 
L 18.3125 47.703125 
L 18.3125 18.015625 
Q 18.3125 11.328125 20.140625 9.421875 
Q 21.96875 7.515625 27.59375 7.515625 
L 36.8125 7.515625 
L 36.8125 0 
L 27.59375 0 
Q 17.1875 0 13.234375 3.875 
Q 9.28125 7.765625 9.28125 18.015625 
L 9.28125 47.703125 
L 2.6875 47.703125 
L 2.6875 54.6875 
L 9.28125 54.6875 
L 9.28125 70.21875 
z
" id="DejaVuSans-116"/>
       <path d="M 34.28125 27.484375 
Q 23.390625 27.484375 19.1875 25 
Q 14.984375 22.515625 14.984375 16.5 
Q 14.984375 11.71875 18.140625 8.90625 
Q 21.296875 6.109375 26.703125 6.109375 
Q 34.1875 6.109375 38.703125 11.40625 
Q 43.21875 16.703125 43.21875 25.484375 
L 43.21875 27.484375 
z
M 52.203125 31.203125 
L 52.203125 0 
L 43.21875 0 
L 43.21875 8.296875 
Q 40.140625 3.328125 35.546875 0.953125 
Q 30.953125 -1.421875 24.3125 -1.421875 
Q 15.921875 -1.421875 10.953125 3.296875 
Q 6 8.015625 6 15.921875 
Q 6 25.140625 12.171875 29.828125 
Q 18.359375 34.515625 30.609375 34.515625 
L 43.21875 34.515625 
L 43.21875 35.40625 
Q 43.21875 41.609375 39.140625 45 
Q 35.0625 48.390625 27.6875 48.390625 
Q 23 48.390625 18.546875 47.265625 
Q 14.109375 46.140625 10.015625 43.890625 
L 10.015625 52.203125 
Q 14.9375 54.109375 19.578125 55.046875 
Q 24.21875 56 28.609375 56 
Q 40.484375 56 46.34375 49.84375 
Q 52.203125 43.703125 52.203125 31.203125 
z
" id="DejaVuSans-97"/>
       <path d="M 54.890625 33.015625 
L 54.890625 0 
L 45.90625 0 
L 45.90625 32.71875 
Q 45.90625 40.484375 42.875 44.328125 
Q 39.84375 48.1875 33.796875 48.1875 
Q 26.515625 48.1875 22.3125 43.546875 
Q 18.109375 38.921875 18.109375 30.90625 
L 18.109375 0 
L 9.078125 0 
L 9.078125 54.6875 
L 18.109375 54.6875 
L 18.109375 46.1875 
Q 21.34375 51.125 25.703125 53.5625 
Q 30.078125 56 35.796875 56 
Q 45.21875 56 50.046875 50.171875 
Q 54.890625 44.34375 54.890625 33.015625 
z
" id="DejaVuSans-110"/>
       <path d="M 48.78125 52.59375 
L 48.78125 44.1875 
Q 44.96875 46.296875 41.140625 47.34375 
Q 37.3125 48.390625 33.40625 48.390625 
Q 24.65625 48.390625 19.8125 42.84375 
Q 14.984375 37.3125 14.984375 27.296875 
Q 14.984375 17.28125 19.8125 11.734375 
Q 24.65625 6.203125 33.40625 6.203125 
Q 37.3125 6.203125 41.140625 7.25 
Q 44.96875 8.296875 48.78125 10.40625 
L 48.78125 2.09375 
Q 45.015625 0.34375 40.984375 -0.53125 
Q 36.96875 -1.421875 32.421875 -1.421875 
Q 20.0625 -1.421875 12.78125 6.34375 
Q 5.515625 14.109375 5.515625 27.296875 
Q 5.515625 40.671875 12.859375 48.328125 
Q 20.21875 56 33.015625 56 
Q 37.15625 56 41.109375 55.140625 
Q 45.0625 54.296875 48.78125 52.59375 
z
" id="DejaVuSans-99"/>
       <path d="M 56.203125 29.59375 
L 56.203125 25.203125 
L 14.890625 25.203125 
Q 15.484375 15.921875 20.484375 11.0625 
Q 25.484375 6.203125 34.421875 6.203125 
Q 39.59375 6.203125 44.453125 7.46875 
Q 49.3125 8.734375 54.109375 11.28125 
L 54.109375 2.78125 
Q 49.265625 0.734375 44.1875 -0.34375 
Q 39.109375 -1.421875 33.890625 -1.421875 
Q 20.796875 -1.421875 13.15625 6.1875 
Q 5.515625 13.8125 5.515625 26.8125 
Q 5.515625 40.234375 12.765625 48.109375 
Q 20.015625 56 32.328125 56 
Q 43.359375 56 49.78125 48.890625 
Q 56.203125 41.796875 56.203125 29.59375 
z
M 47.21875 32.234375 
Q 47.125 39.59375 43.09375 43.984375 
Q 39.0625 48.390625 32.421875 48.390625 
Q 24.90625 48.390625 20.390625 44.140625 
Q 15.875 39.890625 15.1875 32.171875 
z
" id="DejaVuSans-101"/>
       <path id="DejaVuSans-32"/>
       <path d="M 8.59375 75.984375 
L 29.296875 75.984375 
L 29.296875 69 
L 17.578125 69 
L 17.578125 -6.203125 
L 29.296875 -6.203125 
L 29.296875 -13.1875 
L 8.59375 -13.1875 
z
" id="DejaVuSans-91"/>
       <path d="M 52 44.1875 
Q 55.375 50.25 60.0625 53.125 
Q 64.75 56 71.09375 56 
Q 79.640625 56 84.28125 50.015625 
Q 88.921875 44.046875 88.921875 33.015625 
L 88.921875 0 
L 79.890625 0 
L 79.890625 32.71875 
Q 79.890625 40.578125 77.09375 44.375 
Q 74.3125 48.1875 68.609375 48.1875 
Q 61.625 48.1875 57.5625 43.546875 
Q 53.515625 38.921875 53.515625 30.90625 
L 53.515625 0 
L 44.484375 0 
L 44.484375 32.71875 
Q 44.484375 40.625 41.703125 44.40625 
Q 38.921875 48.1875 33.109375 48.1875 
Q 26.21875 48.1875 22.15625 43.53125 
Q 18.109375 38.875 18.109375 30.90625 
L 18.109375 0 
L 9.078125 0 
L 9.078125 54.6875 
L 18.109375 54.6875 
L 18.109375 46.1875 
Q 21.1875 51.21875 25.484375 53.609375 
Q 29.78125 56 35.6875 56 
Q 41.65625 56 45.828125 52.96875 
Q 50 49.953125 52 44.1875 
z
" id="DejaVuSans-109"/>
       <path d="M 30.421875 75.984375 
L 30.421875 -13.1875 
L 9.71875 -13.1875 
L 9.71875 -6.203125 
L 21.390625 -6.203125 
L 21.390625 69 
L 9.71875 69 
L 9.71875 75.984375 
z
" id="DejaVuSans-93"/>
      </defs>
      <use xlink:href="#DejaVuSans-100"/>
      <use x="63.476562" xlink:href="#DejaVuSans-105"/>
      <use x="91.259766" xlink:href="#DejaVuSans-115"/>
      <use x="143.359375" xlink:href="#DejaVuSans-116"/>
      <use x="182.568359" xlink:href="#DejaVuSans-97"/>
      <use x="243.847656" xlink:href="#DejaVuSans-110"/>
      <use x="307.226562" xlink:href="#DejaVuSans-99"/>
      <use x="362.207031" xlink:href="#DejaVuSans-101"/>
      <use x="423.730469" xlink:href="#DejaVuSans-32"/>
      <use x="455.517578" xlink:href="#DejaVuSans-91"/>
      <use x="494.53125" xlink:href="#DejaVuSans-110"/>
      <use x="557.910156" xlink:href="#DejaVuSans-109"/>
      <use x="655.322266" xlink:href="#DejaVuSans-93"/>
     </g>
    </g>
   </g>
   <g id="matplotlib.axis_2"/>
   <g id="line2d_8">
    <path clip-path="url(#pec9c617903)" d="M 10.7 88.586925 
" style="fill:none;stroke:#e41a1c;stroke-linecap:square;stroke-width:1.5;"/>
   </g>
   <g id="line2d_9">
    <path clip-path="url(#pec9c617903)" d="M 10.7 88.586925 
" style="fill:none;stroke:#377eb8;stroke-linecap:square;stroke-width:1.5;"/>
   </g>
   <g id="patch_133">
    <path d="M 10.7 88.586925 
L 10.7 34.226925 
" style="fill:none;stroke:#000000;stroke-linecap:square;stroke-linejoin:miter;stroke-width:0.8;"/>
   </g>
   <g id="patch_134">
    <path d="M 1126.7 88.586925 
L 1126.7 34.226925 
" style="fill:none;stroke:#000000;stroke-linecap:square;stroke-linejoin:miter;stroke-width:0.8;"/>
   </g>
   <g id="patch_135">
    <path d="M 10.7 88.586925 
L 1126.7 88.586925 
" style="fill:none;stroke:#000000;stroke-linecap:square;stroke-linejoin:miter;stroke-width:0.8;"/>
   </g>
   <g id="patch_136">
    <path d="M 10.7 34.226925 
L 1126.7 34.226925 
" style="fill:none;stroke:#000000;stroke-linecap:square;stroke-linejoin:miter;stroke-width:0.8;"/>
   </g>
   <g id="legend_1">
    <g id="line2d_10">
     <path d="M 19.7 15.298437 
L 39.7 15.298437 
" style="fill:none;stroke:#e41a1c;stroke-linecap:square;stroke-width:1.5;"/>
    </g>
    <g id="line2d_11"/>
    <g id="text_9">
     <!-- CoNi -->
     <g transform="translate(47.7 18.798437)scale(0.1 -0.1)">
      <defs>
       <path d="M 64.40625 67.28125 
L 64.40625 56.890625 
Q 59.421875 61.53125 53.78125 63.8125 
Q 48.140625 66.109375 41.796875 66.109375 
Q 29.296875 66.109375 22.65625 58.46875 
Q 16.015625 50.828125 16.015625 36.375 
Q 16.015625 21.96875 22.65625 14.328125 
Q 29.296875 6.6875 41.796875 6.6875 
Q 48.140625 6.6875 53.78125 8.984375 
Q 59.421875 11.28125 64.40625 15.921875 
L 64.40625 5.609375 
Q 59.234375 2.09375 53.4375 0.328125 
Q 47.65625 -1.421875 41.21875 -1.421875 
Q 24.65625 -1.421875 15.125 8.703125 
Q 5.609375 18.84375 5.609375 36.375 
Q 5.609375 53.953125 15.125 64.078125 
Q 24.65625 74.21875 41.21875 74.21875 
Q 47.75 74.21875 53.53125 72.484375 
Q 59.328125 70.75 64.40625 67.28125 
z
" id="DejaVuSans-67"/>
       <path d="M 30.609375 48.390625 
Q 23.390625 48.390625 19.1875 42.75 
Q 14.984375 37.109375 14.984375 27.296875 
Q 14.984375 17.484375 19.15625 11.84375 
Q 23.34375 6.203125 30.609375 6.203125 
Q 37.796875 6.203125 41.984375 11.859375 
Q 46.1875 17.53125 46.1875 27.296875 
Q 46.1875 37.015625 41.984375 42.703125 
Q 37.796875 48.390625 30.609375 48.390625 
z
M 30.609375 56 
Q 42.328125 56 49.015625 48.375 
Q 55.71875 40.765625 55.71875 27.296875 
Q 55.71875 13.875 49.015625 6.21875 
Q 42.328125 -1.421875 30.609375 -1.421875 
Q 18.84375 -1.421875 12.171875 6.21875 
Q 5.515625 13.875 5.515625 27.296875 
Q 5.515625 40.765625 12.171875 48.375 
Q 18.84375 56 30.609375 56 
z
" id="DejaVuSans-111"/>
       <path d="M 9.8125 72.90625 
L 23.09375 72.90625 
L 55.421875 11.921875 
L 55.421875 72.90625 
L 64.984375 72.90625 
L 64.984375 0 
L 51.703125 0 
L 19.390625 60.984375 
L 19.390625 0 
L 9.8125 0 
z
" id="DejaVuSans-78"/>
      </defs>
      <use xlink:href="#DejaVuSans-67"/>
      <use x="69.824219" xlink:href="#DejaVuSans-111"/>
      <use x="131.005859" xlink:href="#DejaVuSans-78"/>
      <use x="205.810547" xlink:href="#DejaVuSans-105"/>
     </g>
    </g>
    <g id="line2d_12">
     <path d="M 91.060938 15.298437 
L 111.060938 15.298437 
" style="fill:none;stroke:#377eb8;stroke-linecap:square;stroke-width:1.5;"/>
    </g>
    <g id="line2d_13"/>
    <g id="text_10">
     <!-- Si -->
     <g transform="translate(119.060938 18.798437)scale(0.1 -0.1)">
      <defs>
       <path d="M 53.515625 70.515625 
L 53.515625 60.890625 
Q 47.90625 63.578125 42.921875 64.890625 
Q 37.9375 66.21875 33.296875 66.21875 
Q 25.25 66.21875 20.875 63.09375 
Q 16.5 59.96875 16.5 54.203125 
Q 16.5 49.359375 19.40625 46.890625 
Q 22.3125 44.4375 30.421875 42.921875 
L 36.375 41.703125 
Q 47.40625 39.59375 52.65625 34.296875 
Q 57.90625 29 57.90625 20.125 
Q 57.90625 9.515625 50.796875 4.046875 
Q 43.703125 -1.421875 29.984375 -1.421875 
Q 24.8125 -1.421875 18.96875 -0.25 
Q 13.140625 0.921875 6.890625 3.21875 
L 6.890625 13.375 
Q 12.890625 10.015625 18.65625 8.296875 
Q 24.421875 6.59375 29.984375 6.59375 
Q 38.421875 6.59375 43.015625 9.90625 
Q 47.609375 13.234375 47.609375 19.390625 
Q 47.609375 24.75 44.3125 27.78125 
Q 41.015625 30.8125 33.5 32.328125 
L 27.484375 33.5 
Q 16.453125 35.6875 11.515625 40.375 
Q 6.59375 45.0625 6.59375 53.421875 
Q 6.59375 63.09375 13.40625 68.65625 
Q 20.21875 74.21875 32.171875 74.21875 
Q 37.3125 74.21875 42.625 73.28125 
Q 47.953125 72.359375 53.515625 70.515625 
z
" id="DejaVuSans-83"/>
      </defs>
      <use xlink:href="#DejaVuSans-83"/>
      <use x="63.476562" xlink:href="#DejaVuSans-105"/>
     </g>
    </g>
   </g>
  </g>
 </g>
 <defs>
  <clipPath id="pec9c617903">
   <rect height="54.36" width="1116" x="10.7" y="34.226925"/>
  </clipPath>
 </defs>
</svg>
