<?xml version="1.0" encoding="UTF-8"?>
<svg width="340px" height="180px" viewBox="0 0 340 180" version="1.1" xmlns="http://www.w3.org/2000/svg" xmlns:xlink="http://www.w3.org/1999/xlink">
    <title>矩形</title>
    <defs>
        <path d="M0.931,23.876 C0.931,45.215 18.229,89.896 39.566,89.896 L39.566,89.896 C60.904,89.896 78.202,45.215 78.202,23.876 L78.202,23.876 C78.202,5.093 60.904,0.567 39.566,0.567 L39.566,0.567 C18.229,0.567 0.931,5.093 0.931,23.876" id="path-1"></path>
        <polygon id="path-3" points="0 0.6779 90.7209 0.6779 90.7209 91.3969 0 91.3969"></polygon>
        <polygon id="path-5" points="0 0.1718 85.3249 0.1718 85.3249 74.3968 0 74.3968"></polygon>
        <polygon id="path-7" points="0.9126 0.916966967 48.725 0.916966967 48.725 52.7866068 0.9126 52.7866068"></polygon>
    </defs>
    <g id="页面-1" stroke="none" stroke-width="1" fill="none" fill-rule="evenodd">
        <g id="接口错误" transform="translate(-262.000000, -107.000000)">
            <g transform="translate(262.000000, 107.000000)">
                <rect id="矩形" x="0" y="0" width="340" height="180"></rect>
                <g id="编组-3" transform="translate(17.000000, 3.000000)">
                    <text id="FAI-LED" font-family="PingFangSC-Semibold, PingFang SC" font-size="60" font-weight="500" letter-spacing="3" fill="#5A3FFC">
                        <tspan x="0" y="139">FAI    LED</tspan>
                    </text>
                    <rect id="矩形" fill="#5A3FFC" x="199" y="64" width="52" height="23" rx="7"></rect>
                    <text id="DATA" font-family="PingFangSC-Semibold, PingFang SC" font-size="14" font-weight="500" letter-spacing="0.7" fill="#19191D">
                        <tspan x="204" y="81">DATA</tspan>
                    </text>
                    <g id="编组" transform="translate(146.500000, 86.500000) scale(-1, 1) translate(-146.500000, -86.500000) translate(101.000000, 0.000000)">
                        <g transform="translate(68.000000, 104.356000)">
                            <path d="M1.0029,11.1013 C2.3669,17.2423 9.4049,38.2583 14.1329,37.2073 C18.8599,36.1583 19.8029,13.4973 18.1229,7.2973 C16.6759,1.9533 12.4279,-0.7987 7.6989,0.2513 C2.9719,1.3023 -0.1981,5.6973 1.0029,11.1013" id="Fill-7" fill="#FFFFFF"></path>
                            <path d="M1.0029,11.1013 C2.3669,17.2423 9.4049,38.2583 14.1329,37.2073 C18.8599,36.1583 19.8029,13.4973 18.1229,7.2973 C16.6759,1.9533 12.4279,-0.7987 7.6989,0.2513 C2.9719,1.3023 -0.1981,5.6973 1.0029,11.1013" id="Fill-9" fill="#CDD2E0"></path>
                        </g>
                        <g transform="translate(6.000000, 82.356000)">
                            <mask id="mask-2" fill="white">
                                <use xlink:href="#path-1"></use>
                            </mask>
                            <g id="Clip-12"></g>
                            <path d="M0.931,23.876 C0.931,45.215 18.229,89.896 39.566,89.896 L39.566,89.896 C60.904,89.896 78.202,45.215 78.202,23.876 L78.202,23.876 C78.202,5.093 60.904,0.567 39.566,0.567 L39.566,0.567 C18.229,0.567 0.931,5.093 0.931,23.876" id="Fill-11" mask="url(#mask-2)"></path>
                        </g>
                        <g transform="translate(0.000000, 0.356000)">
                            <path d="M6.9306,105.8758 C6.9306,127.2148 24.2286,171.8968 45.5666,171.8968 C66.9046,171.8968 84.2016,127.2148 84.2016,105.8758 C84.2016,87.0928 66.9046,82.5668 45.5666,82.5668 C24.2286,82.5668 6.9306,87.0928 6.9306,105.8758" id="Fill-13" fill="#FFFFFF"></path>
                            <path d="M7.5595,102.8211 C7.5595,115.0141 24.5345,124.8991 45.4735,124.8991 C66.4135,124.8991 83.3875,115.0141 83.3875,102.8211 C83.3875,90.6281 66.4135,80.7431 45.4735,80.7431 C24.5345,80.7431 7.5595,90.6281 7.5595,102.8211" id="Fill-15" fill="#BFC7EA"></path>
                            <path d="M45.5663,171.8963 C48.8963,171.8963 52.1283,170.8073 55.2123,168.8893 C54.8793,168.9743 54.5413,169.0653 54.1843,169.1783 C40.4823,173.4963 29.4463,154.1733 25.6913,135.8543 C21.4563,115.1873 25.6913,104.9843 25.6913,104.9843 L10.4323,93.6373 C8.1903,96.8153 6.9303,100.8263 6.9303,105.8753 C6.9303,127.2143 24.2283,171.8963 45.5663,171.8963" id="Fill-17" fill="#CDD2E0" opacity="0.400000006"></path>
                            <g transform="translate(0.000000, 27.000000)">
                                <mask id="mask-4" fill="white">
                                    <use xlink:href="#path-3"></use>
                                </mask>
                                <g id="Clip-20"></g>
                                <path d="M-0.0001,46.0379 C-0.0001,71.0889 20.3089,91.3969 45.3599,91.3969 C70.4119,91.3969 90.7209,71.0889 90.7209,46.0379 C90.7209,20.9859 70.4119,0.6779 45.3599,0.6779 C20.3089,0.6779 -0.0001,20.9859 -0.0001,46.0379" id="Fill-19" fill="#FFFFFF" mask="url(#mask-4)"></path>
                            </g>
                            <g transform="translate(0.000000, 44.000000)">
                                <mask id="mask-6" fill="white">
                                    <use xlink:href="#path-5"></use>
                                </mask>
                                <g id="Clip-22"></g>
                                <path d="M50.3339,66.9978 C25.2819,66.9978 4.9739,46.6888 4.9739,21.6378 C4.9739,13.8708 6.9289,6.5618 10.3689,0.1718 C3.8919,8.0148 -0.0001,18.0708 -0.0001,29.0368 C-0.0001,54.0888 20.3089,74.3968 45.3599,74.3968 C62.6459,74.3968 77.6689,64.7268 85.3249,50.5028 C77.0059,60.5768 64.4199,66.9978 50.3339,66.9978" id="Fill-21" fill="#CDD2E0" opacity="0.400000006" mask="url(#mask-6)"></path>
                            </g>
                            <g transform="translate(42.000000, 51.000000)">
                                <mask id="mask-8" fill="white">
                                    <use xlink:href="#path-7"></use>
                                </mask>
                                <g id="Clip-24"></g>
                                <path d="M46.0536,31.7947 L46.0536,31.7947 C36.5546,44.0467 23.2006,51.4987 8.4766,52.7657 C4.5116,53.1067 0.9126,49.2287 0.9126,44.6147 L0.9126,31.0267 C0.9126,24.9617 4.3676,19.9587 9.4216,18.7067 C20.0726,16.0667 29.7416,10.3247 37.5506,2.0037 C39.3986,0.0337 42.5686,0.8387 43.7986,3.6377 C46.3206,9.3687 48.0036,15.6037 48.6506,22.0967 C49.0106,25.7147 48.0526,29.2157 46.0536,31.7947" id="Fill-23" fill="#5A3FFC" mask="url(#mask-8)"></path>
                            </g>
                            <path d="M48.2265,101.0974 C62.9515,99.8304 76.3045,92.3794 85.8035,80.1264 C87.8025,77.5484 88.7605,74.0474 88.4005,70.4294 C87.7675,64.0764 86.1375,57.9754 83.7055,52.3464 C84.5655,52.7884 85.3265,53.5624 85.7985,54.6374 C88.3205,60.3694 90.0035,66.6034 90.6505,73.0964 C91.0105,76.7154 90.0525,80.2154 88.0535,82.7934 C78.5545,95.0464 65.2015,102.4984 50.4765,103.7654 C47.8085,103.9934 45.3125,102.3094 43.9605,99.7804 C45.2015,100.7184 46.6845,101.2304 48.2265,101.0974" id="Fill-25" fill="#BFC7EA"></path>
                            <path d="M5.3027,132.0379 C5.3027,137.8679 10.0297,142.5939 15.8587,142.5939 C21.6887,142.5939 26.4137,137.8679 26.4137,132.0379 C26.4137,126.2089 21.6887,121.4819 15.8587,121.4819 C10.0297,121.4819 5.3027,126.2089 5.3027,132.0379" id="Fill-27" fill="#CDD4F3"></path>
                            <path d="M6.4247,136.7185 C7.7657,144.6565 18.9137,162.0985 23.6417,161.0475 C28.3687,159.9975 24.1517,138.5145 22.7867,132.3735 C21.5857,126.9695 17.0907,124.2785 12.3627,125.3285 C7.6347,126.3795 5.5027,131.2595 6.4247,136.7185" id="Fill-29" fill="#FFFFFF"></path>
                            <path d="M37.0849,34.9236 C37.0849,37.6396 40.8649,39.8406 45.5279,39.8406 C50.1909,39.8406 53.9719,37.6396 53.9719,34.9236 C53.9719,32.2086 50.1909,30.0076 45.5279,30.0076 C40.8649,30.0076 37.0849,32.2086 37.0849,34.9236" id="Fill-31" fill="#CDD4F3"></path>
                            <path d="M47.5576,16.909 L43.4986,16.909 L43.4986,34.8 C43.4986,35.452 44.4076,35.981 45.5286,35.981 C46.6486,35.981 47.5576,35.452 47.5576,34.8 L47.5576,16.909 Z" id="Fill-33" fill="#FFFFFF"></path>
                            <path d="M61.5585,18.1746 C61.1445,18.1746 60.8085,17.8386 60.8085,17.4246 C60.8085,8.9986 53.9545,2.1446 45.5275,2.1446 C45.1135,2.1446 44.7775,1.8086 44.7775,1.3946 C44.7775,0.9806 45.1135,0.6446 45.5275,0.6446 C54.7815,0.6446 62.3085,8.1716 62.3085,17.4246 C62.3085,17.8386 61.9725,18.1746 61.5585,18.1746" id="Fill-35" fill="#BFC7EA"></path>
                            <path d="M56.5585,18.1746 C56.1445,18.1746 55.8085,17.8386 55.8085,17.4246 C55.8085,11.7556 51.1965,7.1446 45.5275,7.1446 C45.1135,7.1446 44.7775,6.8086 44.7775,6.3946 C44.7775,5.9806 45.1135,5.6446 45.5275,5.6446 C52.0235,5.6446 57.3085,10.9286 57.3085,17.4246 C57.3085,17.8386 56.9725,18.1746 56.5585,18.1746" id="Fill-37" fill="#BFC7EA"></path>
                            <path d="M39.497,17.4246 C39.497,20.7556 42.197,23.4556 45.528,23.4556 C48.859,23.4556 51.559,20.7556 51.559,17.4246 C51.559,14.0946 48.859,11.3946 45.528,11.3946 C42.197,11.3946 39.497,14.0946 39.497,17.4246" id="Fill-39" fill="#FFFFFF"></path>
                            <path d="M63.8007,147.4236 L65.5507,149.1736 L67.3007,147.4236 L65.5507,145.6736 L63.8007,147.4236 Z M58.8007,147.4236 L60.5507,149.1736 L62.3007,147.4236 L60.5507,145.6736 L58.8007,147.4236 Z M68.8007,142.4236 L70.5507,144.1736 L72.3007,142.4236 L70.5507,140.6736 L68.8007,142.4236 Z M63.8007,142.4236 L65.5507,144.1736 L67.3007,142.4236 L65.5507,140.6736 L63.8007,142.4236 Z M58.8007,142.4236 L60.5507,144.1736 L62.3007,142.4236 L60.5507,140.6736 L58.8007,142.4236 Z M68.8007,137.4236 L70.5507,139.1736 L72.3007,137.4236 L70.5507,135.6736 L68.8007,137.4236 Z M63.8007,137.4236 L65.5507,139.1736 L67.3007,137.4236 L65.5507,135.6736 L63.8007,137.4236 Z M73.8007,132.4236 L75.5507,134.1736 L77.3007,132.4236 L75.5507,130.6736 L73.8007,132.4236 Z M68.8007,132.4236 L70.5507,134.1736 L72.3007,132.4236 L70.5507,130.6736 L68.8007,132.4236 Z M63.8007,132.4236 L65.5507,134.1736 L67.3007,132.4236 L65.5507,130.6736 L63.8007,132.4236 Z M73.8007,127.4236 L75.5507,129.1736 L77.3007,127.4236 L75.5507,125.6736 L73.8007,127.4236 Z M68.8007,127.4236 L70.5507,129.1736 L72.3007,127.4236 L70.5507,125.6736 L68.8007,127.4236 Z M73.8007,122.4236 L75.5507,124.1736 L77.3007,122.4236 L75.5507,120.6736 L73.8007,122.4236 Z M53.8007,162.4236 L55.5507,164.1736 L57.3007,162.4236 L55.5507,160.6736 L53.8007,162.4236 Z M58.8007,157.4236 L60.5507,159.1736 L62.3007,157.4236 L60.5507,155.6736 L58.8007,157.4236 Z M53.8007,157.4236 L55.5507,159.1736 L57.3007,157.4236 L55.5507,155.6736 L53.8007,157.4236 Z M63.8007,152.4236 L65.5507,154.1736 L67.3007,152.4236 L65.5507,150.6736 L63.8007,152.4236 Z M58.8007,152.4236 L60.5507,154.1736 L62.3007,152.4236 L60.5507,150.6736 L58.8007,152.4236 Z" id="Fill-41" fill="#E6EBFD"></path>
                            <path d="M47.5126,21.4715 C44.1816,21.4715 41.4816,18.7715 41.4816,15.4405 C41.4816,14.2845 41.8126,13.2075 42.3766,12.2895 C40.6516,13.3515 39.4966,15.2505 39.4966,17.4245 C39.4966,20.7555 42.1976,23.4555 45.5286,23.4555 C47.7026,23.4555 49.6026,22.3005 50.6636,20.5755 C49.7456,21.1395 48.6686,21.4715 47.5126,21.4715" id="Fill-43" fill="#CDD2E0"></path>
                            <path d="M58.8007,84.9402 L58.8007,84.9402 C57.4407,84.9402 56.3367,83.8362 56.3367,82.4752 L56.3367,80.1232 C56.3367,78.7612 57.4407,77.6582 58.8007,77.6582 C60.1617,77.6582 61.2657,78.7612 61.2657,80.1232 L61.2657,82.4752 C61.2657,83.8362 60.1617,84.9402 58.8007,84.9402" id="Fill-45" fill="#FFFFFF"></path>
                            <path d="M78.0156,74.4138 L78.0156,74.4138 C76.6546,74.4138 75.5506,73.3108 75.5506,71.9498 L75.5506,69.5978 C75.5506,68.2358 76.6546,67.1328 78.0156,67.1328 C79.3766,67.1328 80.4806,68.2358 80.4806,69.5978 L80.4806,71.9498 C80.4806,73.3108 79.3766,74.4138 78.0156,74.4138" id="Fill-47" fill="#FFFFFF"></path>
                        </g>
                    </g>
                </g>
            </g>
        </g>
    </g>
</svg>