<?xml version="1.0" encoding="UTF-8"?>
<svg width="16px" height="19px" viewBox="0 0 16 19" version="1.1" xmlns="http://www.w3.org/2000/svg" xmlns:xlink="http://www.w3.org/1999/xlink">
    <!-- Generator: Sketch 61.2 (89653) - https://sketch.com -->
    <title>Graviti备份</title>
    <desc>Created with Sketch.</desc>
    <g id="页面-1" stroke="none" stroke-width="1" fill="none" fill-rule="evenodd">
        <g id="Fusion追踪-4" transform="translate(-94.000000, -191.000000)" fill="#FFFFFF" fill-rule="nonzero">
            <g id="Graviti备份" transform="translate(94.000000, 191.000000)">
                <path d="M11.031629,10.8971853 C10.8054131,10.7641103 10.5791973,10.7113391 10.3529814,10.5851473 L10.3529814,10.5851473 C10.1836904,10.4854469 10.0604295,10.3215684 10.0103591,10.1296224 C9.96028871,9.9376763 9.9875179,9.73341461 10.0860467,9.56184626 L11.4048851,7.25368295 C11.8158493,6.53899426 11.5778551,5.62172803 10.8732779,5.20478649 C10.1664758,4.79070875 9.26305666,5.02385465 8.83733517,5.73020339 L5.10477356,12.271529 C4.72639872,12.9860006 4.97419846,13.8760715 5.66513689,14.2842959 C6.35607533,14.6925202 7.24167788,14.4720927 7.6677992,13.785831 L8.07951206,13.063096 C8.29508104,12.7283934 8.73105203,12.6230619 9.07224552,12.8232494 C9.41343902,13.0234369 9.54075671,13.4592653 9.36215596,13.8156582 L9.36215596,13.8156582 L8.96627821,14.5039772 C8.44834905,15.4584498 7.4610892,16.0532624 6.38692668,16.0580066 C5.31276416,16.0627508 4.32043426,15.4766815 3.79432897,14.5268201 C3.26822368,13.5769587 3.29098647,12.4125148 3.85379989,11.4845509 L6.05940447,7.62078646 C6.32489536,7.15888039 6.32725759,6.58840539 6.06560132,6.12425385 C5.80394506,5.66010232 5.31802211,5.37278992 4.79087497,5.37054445 C4.26372782,5.36829899 3.77544266,5.6514616 3.50995179,6.11336767 L1.3043472,9.98860409 C-0.338555507,12.8485852 0.615504807,16.517874 3.43530055,18.1841899 C6.2550963,19.8505059 9.87282819,18.8828491 11.5157309,16.022868 L12.0971056,14.999567 C12.4924478,14.3123164 12.602293,13.4938827 12.4024568,12.724458 C12.2026207,11.9550332 11.7094875,11.2977014 11.031629,10.8971853 Z" id="路径"></path>
                <path d="M5.27194439,4.77876671 C5.99224782,5.2234189 6.91168398,4.97761893 7.352775,4.22248218 L8.34319323,2.38266039 C8.69907517,1.60113686 8.43034798,0.657710026 7.72788758,0.222492437 C7.02542718,-0.212725151 6.1285488,0.00853706806 5.6743018,0.729117372 L4.68150276,2.56893916 C4.29033541,3.35570382 4.55150993,4.33319357 5.27194439,4.77876671 Z" id="路径"></path>
                <path d="M12.2665194,10.7798045 C12.9852621,11.2223708 13.902706,10.9777239 14.3428413,10.2261296 L15.3311135,8.39493852 C15.7041332,7.61460579 15.4397852,6.65863948 14.7298505,6.22058083 C14.0199157,5.78252219 13.1134159,6.01602772 12.668005,6.75169219 L11.6797328,8.58542303 C11.2921226,9.36663201 11.5512477,10.3356712 12.2665194,10.7798045 L12.2665194,10.7798045 Z" id="路径"></path>
            </g>
        </g>
    </g>
</svg>