<?xml version="1.0" encoding="UTF-8"?>
<svg width="78px" height="15px" viewBox="0 0 78 15" version="1.1" xmlns="http://www.w3.org/2000/svg" xmlns:xlink="http://www.w3.org/1999/xlink">
    <!-- Generator: Sketch 61.2 (89653) - https://sketch.com -->
    <title>Graviti</title>
    <desc>Created with Sketch.</desc>
    <g id="页面-1" stroke="none" stroke-width="1" fill="none" fill-rule="evenodd">
        <g id="Fusion追踪-4" transform="translate(-764.000000, -660.000000)" fill="#FFFFFF" fill-rule="nonzero">
            <g id="Graviti" transform="translate(764.000000, 660.000000)">
                <path d="M3.87878632,13.9853344 C1.47975034,12.6495671 0,10.1688231 0,7.48269961 C0,4.79657613 1.47975034,2.31583209 3.87878632,0.980064844 C5.05844314,0.327487652 6.39473458,-0.0105376375 7.75221753,0.000250363051 C8.82133364,-0.00802473395 9.88156006,0.189375545 10.8717594,0.581068225 C11.7880012,0.941402024 12.61027,1.49518604 13.279006,2.20230765 L11.6724419,3.76293999 C11.1954334,3.24564175 10.608178,2.83545791 9.95149458,2.56089955 C9.25217426,2.2759207 8.50013098,2.13325008 7.74181906,2.14170057 C6.81254166,2.13790166 5.89779241,2.36570234 5.0850092,2.80332787 C4.26141264,3.241591 3.57788042,3.89160226 3.10929932,4.68214739 C2.11840198,6.42511699 2.11840198,8.54028222 3.10929932,10.2832518 C3.57788042,11.0737969 4.26141264,11.7238082 5.0850092,12.1620713 C6.59336318,12.93241 8.36990167,13.0354397 9.96189306,12.4449044 C10.5452752,12.1973609 11.0814096,11.8558486 11.5476602,11.4347864 C11.8600468,11.1119472 12.1132639,10.7395644 12.2963503,10.3337577 C12.5141791,9.87859488 12.6563239,9.39275504 12.7174884,8.89433954 L7.71582288,8.89433954 L7.71582288,6.91450822 L14.8959685,6.91450822 C14.9652394,7.296359 15,7.68335889 15,8.07109335 C15.0030172,8.95887359 14.8554619,9.84107693 14.5632174,10.6822484 C14.286582,11.5015382 13.8144772,12.2456934 13.1854197,12.8540022 C11.7717167,14.2879894 9.79482565,15.0671641 7.75221753,14.9954524 C6.3918888,14.9970246 5.05541084,14.6484963 3.87878632,13.9853344 L3.87878632,13.9853344 Z" id="路径"></path>
                <path d="M18,1.00057021 L23.3816047,1.00057021 C24.245515,0.988388777 25.0994082,1.17154884 25.8679061,1.53388183 C27.3850728,2.25324503 28.3258763,3.70031543 28.2950098,5.2670631 C28.3041969,6.18377122 27.9525955,7.07273936 27.3047945,7.77066483 C26.6690263,8.49244113 25.8005677,9.01102015 24.8238748,9.25208597 L24.8238748,9.35084738 L29,14.8814863 L29,15 L26.2284736,15 L22.2030333,9.52367985 L20.4109589,9.52367985 L20.4109589,14.9851858 L18.0215264,14.9851858 L18,1.00057021 Z M23.3062622,7.48919481 C23.975562,7.50384512 24.6252129,7.28096764 25.119863,6.86699793 C25.6168946,6.45446552 25.8905566,5.86192365 25.8679061,5.24731082 C25.8655229,4.87745692 25.7618932,4.51408166 25.5665362,4.19056374 C25.3656516,3.8514842 25.0727707,3.56573254 24.7162427,3.3609679 C24.3181558,3.13855677 23.8582284,3.02704696 23.3923679,3.03999332 L20.3894325,3.03999332 L20.3894325,7.48425674 L23.3062622,7.48919481 Z" id="形状"></path>
                <polygon id="路径" points="43 1 45.5374749 1 48.8408818 10.2493827 49.3619238 11.8345679 49.4817635 11.8345679 50.0028056 10.2493827 53.4833667 1 56 1 50.6332665 15 48.2468938 15"></polygon>
                <polygon id="路径" points="34.2239583 1 36.640625 1 42 15 39.46875 15 36.0052083 5.75061728 35.484375 4.1654321 35.359375 4.1654321 34.8385417 5.75061728 31.5416667 15 29 15"></polygon>
                <polygon id="路径" points="57 1 60 1 60 15 57 15"></polygon>
                <polygon id="路径" points="66.295858 3.07627119 62 3.07627119 62 1 73 1 73 3.07627119 68.704142 3.07627119 68.704142 15 66.295858 15"></polygon>
                <polygon id="路径" points="75 1 78 1 78 15 75 15"></polygon>
            </g>
        </g>
    </g>
</svg>