<?xml version="1.0" encoding="UTF-8"?>
<svg width="125px" height="125px" viewBox="0 0 125 125" version="1.1" xmlns="http://www.w3.org/2000/svg" xmlns:xlink="http://www.w3.org/1999/xlink">
    <title>rotate</title>
    <g id="rotate" stroke="none" stroke-width="1" fill="none" fill-rule="evenodd">
        <g>
            <rect id="矩形" x="0" y="0" width="125" height="125"></rect>
            <g id="编组-4" transform="translate(7.000000, 13.000000)" fill="#272834" fill-rule="nonzero">
                <path d="M45,0 C50.9787016,0 55.8433652,4.76976358 55.9962926,10.7115925 L56,11 L56,42.999 L99,43 C104.978702,43 109.843365,47.7697636 109.996293,53.7115925 L110,54 L110,88 C110,94.0751322 105.075132,99 99,99 L99,99 L29,99 C24.3364002,99 20.3506428,96.0978112 18.7502564,92.0009621 L11,92 C5.02129842,92 0.15663482,87.2302364 0.00370740462,81.2884075 L0,81 L0,11 C0,5.02129842 4.76976358,0.15663482 10.7115925,0.00370740462 L11,0 L45,0 Z M29,49 C26.2385763,49 24,51.2385763 24,54 L24,54 L23.999,86 L24,88 L24.0057041,88.2409576 C24.0064967,88.2576612 24.0073712,88.2743433 24.0083273,88.2910035 C24.0116376,88.3487112 24.0159371,88.4062701 24.0212027,88.4635492 L24.0083273,88.2910035 C24.014068,88.391039 24.0227497,88.4902865 24.034287,88.5886609 L24.0212027,88.4635492 C24.0279736,88.5372022 24.0363418,88.6103928 24.0462724,88.6830859 L24.034287,88.5886609 C24.0425581,88.6591852 24.0522969,88.7292608 24.063472,88.7988563 L24.0462724,88.6830859 C24.0589975,88.7762342 24.0742881,88.8685658 24.0920705,88.9600072 L24.063472,88.7988563 C24.0757854,88.8755411 24.0898427,88.951643 24.1056019,89.0271201 L24.0920705,88.9600072 C24.1040039,89.0213709 24.1170594,89.0823338 24.1312149,89.1428734 L24.1056019,89.0271201 C24.1423726,89.2032307 24.1884089,89.3759395 24.2431776,89.5447134 C24.2835487,89.6690607 24.3283939,89.7906292 24.377719,89.9098741 C24.3846907,89.9267305 24.3918382,89.9437426 24.3990767,89.9607065 L24.377719,89.9098741 C24.4101282,89.9882243 24.4444716,90.0655712 24.4806895,90.1418556 L24.3990767,89.9607065 C24.4302964,90.0338716 24.4632102,90.1061406 24.497769,90.1774643 L24.4806895,90.1418556 C24.6189499,90.433068 24.7845286,90.708794 24.9741144,90.9657223 C24.9894313,90.986478 25.0047688,91.0069323 25.0202585,91.0272644 L24.9741144,90.9657223 C25.013875,91.0196063 25.0546916,91.0726634 25.0965335,91.1248632 L25.0202585,91.0272644 C25.0678162,91.0896894 25.1168092,91.150962 25.1671883,91.2110328 L25.0965335,91.1248632 C25.1414924,91.1809516 25.1876351,91.2360501 25.2349238,91.2901209 L25.1671883,91.2110328 C25.2162124,91.2694881 25.2665491,91.3268055 25.318153,91.3829395 L25.2349238,91.2901209 C25.3230452,91.3908806 25.4151459,91.4880714 25.5109808,91.5814483 C25.5718903,91.640803 25.6345469,91.6988268 25.6986598,91.7552347 C25.7246854,91.7781302 25.7507543,91.8005935 25.7770554,91.8227903 L25.6986598,91.7552347 C25.7522915,91.802421 25.8069423,91.8484765 25.8625748,91.893364 L25.7770554,91.8227903 C25.8404747,91.876313 25.9052442,91.9282863 25.9713056,91.9786517 L25.8625748,91.893364 C26.7204725,92.5855643 27.811838,93 29,93 L29,93 L99,93 C101.761424,93 104,90.7614237 104,88 L104,88 L104,54 C104,51.2385763 101.761424,49 99,49 L99,49 Z M45,6 L11,6 C8.3112453,6 6.11818189,8.12230671 6.00461951,10.7831104 L6,11 L6,81 C6,83.6887547 8.12230671,85.8818181 10.7831104,85.9953805 L11,86 L17.999,86 L18,54 C18,48.0212984 22.7697636,43.1566348 28.7115925,43.0037074 L29,43 L50,42.999 L50,11 C50,8.3112453 47.8776933,6.11818189 45.2168896,6.00461951 L45,6 Z M98,61 C99.0543618,61 99.9181651,61.8158778 99.9945143,62.8507377 L100,63 L100,79 C100,80.1045695 99.1045695,81 98,81 C96.9456382,81 96.0818349,80.1841222 96.0054857,79.1492623 L96,79 L96,63 C96,61.8954305 96.8954305,61 98,61 Z M63,12 C74.4758489,12 83.8994684,20.7866382 84.9102516,31.9993075 L87.8557439,32 C88.4080287,32 88.8557439,32.4477153 88.8557439,33 C88.8557439,33.2350718 88.7729311,33.4626299 88.621846,33.642719 L83.766102,39.4306225 C83.4111382,39.853729 82.7803875,39.9089695 82.357281,39.5540056 C82.3126369,39.5165515 82.271352,39.4752667 82.233898,39.4306225 L77.378154,33.642719 C77.0231901,33.2196125 77.0784306,32.5888618 77.5015371,32.233898 C77.6816261,32.0828128 77.9091842,32 78.1442561,32 L80.8901109,31.9997142 C79.9069549,23.1072456 72.4459971,16.1671903 63.3306652,16.0029763 L63,16 L63,12 Z M36,10 C37.1045695,10 38,10.8954305 38,12 C38,13.0543618 37.1841222,13.9181651 36.1492623,13.9945143 L36,14 L20,14 C18.8954305,14 18,13.1045695 18,12 C18,10.9456382 18.8158778,10.0818349 19.8507377,10.0054857 L20,10 L36,10 Z" id="形状结合"></path>
            </g>
            <g id="编组-4备份" transform="translate(71.000000, 84.000000) rotate(-270.000000) translate(-71.000000, -84.000000) translate(43.000000, 38.000000)"></g>
            <g id="编组-6" transform="translate(70.000000, 25.000000)"></g>
        </g>
    </g>
</svg>