<?xml version="1.0" encoding="UTF-8"?>
<svg viewBox="0 0 24 24" version="1.1" xmlns="http://www.w3.org/2000/svg" xmlns:xlink="http://www.w3.org/1999/xlink">
 <g id="微信_wechat" transform="translate(0.00000, 0.000000)"  fill="#FFFFFF">
    <rect id="矩形" fill-opacity="0.01" fill="#FFFFFF" fill-rule="nonzero" x="0" y="0" width="27" height="24"></rect>
    <path d="M20.8110375,10.8556 C20.7244125,6.50395 16.7288063,3 11.8125,3 C6.8419125,3 2.8125,6.5817 2.8125,11 C2.8125,13.08505 3.70986188,14.9838 5.1800175,16.4077 L4.50586688,20.01285 L8.5078125,18.48495 C10.2710813,19.0061 11.935125,19.1364 13.5,18.8758" id="路径" fill="#FFFFFF"></path>
    <path d="M20.8110375,10.8556 C20.7244125,6.50395 16.7288063,3 11.8125,3 C6.8419125,3 2.8125,6.5817 2.8125,11 C2.8125,13.08505 3.70986188,14.9838 5.1800175,16.4077 L4.50586688,20.01285 L8.5078125,18.48495 C10.2710813,19.0061 11.935125,19.1364 13.5,18.8758" id="路径" stroke="#333333" stroke-width="2" stroke-linecap="round" stroke-linejoin="round"></path>
    <path d="M8.5078125,10.23335 C9.206775,10.23335 9.7734375,9.72595 9.7734375,9.1 C9.7734375,8.4741 9.206775,7.96665 8.5078125,7.96665 C7.80885,7.96665 7.2421875,8.4741 7.2421875,9.1 C7.2421875,9.72595 7.80885,10.23335 8.5078125,10.23335 Z" id="路径" fill="#2C2C2C" fill-rule="nonzero"></path>
    <path d="M13.5703125,10.23335 C14.269275,10.23335 14.8359375,9.72595 14.8359375,9.1 C14.8359375,8.4741 14.269275,7.96665 13.5703125,7.96665 C12.87135,7.96665 12.3046875,8.4741 12.3046875,9.1 C12.3046875,9.72595 12.87135,10.23335 13.5703125,10.23335 Z" id="路径" fill="#2C2C2C" fill-rule="nonzero"></path>
    <path d="M21.8035125,19.96465 C20.8200937,20.6151 19.6012687,21 18.28125,21 C15.0193125,21 12.375,18.6495 12.375,15.75 C12.375,12.8505 15.0193125,10.5 18.28125,10.5 C21.5431875,10.5 24.1875,12.8505 24.1875,15.75 C24.1875,16.54985 23.9862938,17.30795 23.62635,17.9864" id="路径" fill="#FFFFFF"></path>
    <path d="M21.8035125,19.96465 C20.8200937,20.6151 19.6012687,21 18.28125,21 C15.0193125,21 12.375,18.6495 12.375,15.75 C12.375,12.8505 15.0193125,10.5 18.28125,10.5 C21.5431875,10.5 24.1875,12.8505 24.1875,15.75 C24.1875,16.54985 23.9862938,17.30795 23.62635,17.9864" id="路径" stroke="#2C2C2C" stroke-linecap="round" stroke-linejoin="round"></path>
    <polyline id="路径" fill="#FFFFFF" points="23.62635 17.9864 24.1875 21 21.8035125 19.96465"></polyline>
    <polyline id="路径" stroke="#2C2C2C" stroke-linecap="round" stroke-linejoin="round" points="23.62635 17.9864 24.1875 21 21.8035125 19.96465"></polyline>
    <path d="M20.0742187,15.39995 C19.5499687,15.39995 19.125,15.0194 19.125,14.54995 C19.125,14.0805 19.5499687,13.69995 20.0742187,13.69995 C20.5984687,13.69995 21.0234375,14.0805 21.0234375,14.54995 C21.0234375,15.0194 20.5984687,15.39995 20.0742187,15.39995 Z" id="路径" fill="#2C2C2C" fill-rule="nonzero"></path>
    <path d="M16.2773437,15.39995 C15.7530937,15.39995 15.328125,15.0194 15.328125,14.54995 C15.328125,14.0805 15.7530937,13.69995 16.2773437,13.69995 C16.8015937,13.69995 17.2265625,14.0805 17.2265625,14.54995 C17.2265625,15.0194 16.8015937,15.39995 16.2773437,15.39995 Z" id="路径" fill="#2C2C2C" fill-rule="nonzero"></path>
</g>
</svg>