<?xml version="1.0" encoding="UTF-8"?>
<svg viewBox="0 0 24 24" version="1.1" xmlns="http://www.w3.org/2000/svg" xmlns:xlink="http://www.w3.org/1999/xlink">
<g id="微博_weibo" transform="translate(1.000000, 1.000000)" fill="#FFFFFF">
    <rect id="矩形" fill-opacity="0.01" fill="#FFFFFF" fill-rule="nonzero" x="0" y="0" width="24" height="24"></rect>
    <path d="M6.2809,8.20545 C4.608815,9.8304 1.08162,14.573 3.681265,17.9658 C6.2809,21.35865 13.64105,20.0499 16.6795,17.6596 C19.7179,15.26935 19.418,13.7924 18.7592,13.1416 C18.10045,12.49085 16.1778,13.1485 15.63965,12.263 C15.1015,11.3775 16.59785,9.1655 15.3226,8.46555 C14.0474,7.7656 11.84535,10.2905 10.85075,9.63445 C9.8561,8.9784 11.9453,6.8364 10.85075,6.2192 C9.75615,5.60195 7.953,6.5805 6.2809,8.20545 Z" id="路径" stroke="#FFFFFF" stroke-width="2" fill="#FFFFFF" fill-rule="nonzero" stroke-linejoin="round"></path>
    <path d="M21.68935,8.25795 C21.57175,6.6924 20.8995,5.2816 19.8686,4.221385 C18.86235,3.186555 17.51435,2.48575 16.00685,2.301145" id="路径" stroke="#FFFFFF" stroke-width="2" stroke-linecap="round"></path>
    <path d="M18.64595,8.46565 C18.58135,7.6458 18.21235,6.90695 17.6464,6.3517 C17.094,5.80975 16.35395,5.44275 15.52635,5.34605" id="路径" stroke="#FFFFFF" stroke-width="2" stroke-linecap="round"></path>
    <path d="M12.5,15 C12.5,16.10455 11.15685,17 9.5,17 C7.84315,17 6.5,16.10455 6.5,15 C6.5,13.89545 7.84315,13 9.5,13 C11.15685,13 12.5,13.89545 12.5,15 Z" id="路径" fill="#2C2C2C" fill-rule="nonzero"></path>
</g>
</svg>